<?xml version="1.0" encoding="UTF-8" standalone="no"?>
<svg
   version="1.1"
   id="Layer_1"
   x="0px"
   y="0px"
   width="475.28317"
   viewBox="0 0 475.28318 204.05161"
   enable-background="new 0 0 500 500"
   xml:space="preserve"
   sodipodi:docname="ARS_black_logo.svg"
   height="204.05162"
   inkscape:version="1.3.1 (9b9bdc1480, 2023-11-25, custom)"
   xmlns:inkscape="http://www.inkscape.org/namespaces/inkscape"
   xmlns:sodipodi="http://sodipodi.sourceforge.net/DTD/sodipodi-0.dtd"
   xmlns="http://www.w3.org/2000/svg"
   xmlns:svg="http://www.w3.org/2000/svg"><defs
   id="defs15" /><sodipodi:namedview
   id="namedview15"
   pagecolor="#ffffff"
   bordercolor="#000000"
   borderopacity="0.25"
   inkscape:showpageshadow="2"
   inkscape:pageopacity="0.0"
   inkscape:pagecheckerboard="0"
   inkscape:deskcolor="#d1d1d1"
   showguides="true"
   inkscape:zoom="1.1539983"
   inkscape:cx="210.13896"
   inkscape:cy="151.64667"
   inkscape:window-width="1850"
   inkscape:window-height="1016"
   inkscape:window-x="2310"
   inkscape:window-y="27"
   inkscape:window-maximized="1"
   inkscape:current-layer="Layer_1"><sodipodi:guide
     position="295.55642,-51.843379"
     orientation="0,-1"
     id="guide16"
     inkscape:locked="false" /><sodipodi:guide
     position="259.80623,201.35243"
     orientation="0,-1"
     id="guide1"
     inkscape:locked="false" /><sodipodi:guide
     position="444.06128,4.9867002"
     orientation="0,-1"
     id="guide2"
     inkscape:locked="false" /><sodipodi:guide
     position="512.0581,201.82337"
     orientation="1,0"
     id="guide3"
     inkscape:locked="false" /></sodipodi:namedview>

<path
   fill="#fdfdfd"
   opacity="1"
   stroke="none"
   d="M 4.2042591,2.7806929 H 163.91118 L 84.720229,183.48516 Z"
   id="path2"
   style="display:inline;fill:#000000;fill-opacity:1"
   sodipodi:nodetypes="cccc" />
<path
   fill="#fcfcfc"
   opacity="1"
   stroke="none"
   d="m 360.46056,113.66155 c 8.95819,2.16382 17.54117,3.53617 25.91458,-0.98111 5.61051,-3.02676 8.89609,-7.73848 9.80609,-13.839169 1.12573,-7.54687 -1.48724,-13.82458 -8.44473,-17.40977 -8.94315,-4.60846 -18.23123,-8.54776 -27.17288,-13.15891 -9.6619,-4.98256 -20.1106,-9.42372 -23.47885,-21.27737 -3.41507,-12.01842 -0.36228,-26.17009 10.98452,-35.06673 12.79459,-10.0317481 26.62354,-11.48719808 40.97181,-7.9677281 10.42273,2.556598 18.88766,9.7017181 24.2261,19.5454881 0.41397,0.76329 -0.60477,3.2337 -1.5918,3.68066 l -14.85983,6.72904 c -0.77559,0.35121 -2.76739,-0.87636 -3.3833,-1.8729 -4.36328,-7.05932 -10.87097,-10.39517 -18.85867,-10.73993 -6.50345,-0.28068 -13.84105,3.50183 -16.82022,10.635 -1.79137,4.28916 1.92819,12.45065 6.7568,14.79277 12.45432,6.04088 25.00266,11.89128 37.39401,18.05778 20.78043,10.34128 22.28315,31.43965 13.80643,47.444919 -7.96643,15.04173 -22.4277,21.26976 -39.1488,22.2881 -12.27246,0.74744 -23.92636,-1.57696 -34.2894,-8.21741 -8.23795,-5.27877 -14.60718,-12.49115 -17.6196,-22.07815 -0.28213,-0.89789 0.77478,-3.01683 1.71298,-3.36978 l 14.18177,-5.335149 c 3.2232,-1.21256 4.37573,-0.0899 5.45562,2.38724 2.95166,6.770639 7.67951,11.918699 14.45737,15.753109 z"
   id="path3"
   sodipodi:nodetypes="csssssssssscsssssssssssc"
   style="fill:#000000;fill-opacity:1" />
<path
   fill="#fcfcfc"
   opacity="1"
   stroke="none"
   d="m 183.32024,8.0197509 c 1.35896,-3.07958 2.67968,-5.377238 7.54178,-5.319498 l 11.03697,0.13107 c 0,0 38.42528,86.7182781 57.90724,130.6852071 -7.64517,0 -14.29553,0.11823 -20.93432,-0.10598 -1.23578,-0.0417 -3.04279,-1.17456 -3.54419,-2.28501 l -21.04668,-46.611519 -20.34869,-49.85276 -25.87592,62.14061 -15.32591,33.774969 c -0.61037,1.34513 -2.69887,2.7435 -4.15984,2.80944 -6.64499,0.29984 -13.31109,0.13141 -20.6302,0.13141 z"
   id="path4"
   sodipodi:nodetypes="ssccsscccsccs"
   style="fill:#000000;fill-opacity:1" />
<path
   fill="#fbfbfb"
   opacity="1"
   stroke="none"
   d="m 269.61721,84.369411 h -22.14746 l -7.74314,-17.64131 45.03256,-0.0428 c 14.27714,-0.0136 27.40616,-12.96801 22.59702,-29.2488 -1.95041,-6.6029 -11.5673,-14.00518 -18.55151,-14.08913 l -68.87172,-0.82782 c 0,0 -5.94411,-12.9087301 -9.11827,-19.8020081 l 75.10174,0.1469 c 21.83298,0.0427 39.56769,11.4137081 43.58573,35.1427481 3.259,19.24644 -5.66269,37.01069 -27.87488,44.31123 -2.76337,0.90826 -8.65946,2.35002 -8.65946,2.35002 l 21.88922,48.716099 h -22.87838 z"
   id="path5"
   sodipodi:nodetypes="cccsssccssscccc"
   style="fill:#000000;fill-opacity:1" />

<path
   fill="#f5f5f5"
   opacity="1"
   stroke="none"
   d="M 257.35998,190.50101 235.0844,158.03655 v 40.49602 l -5.69531,0.0564 v -52.40356 c 4.75857,-0.7186 4.45183,-0.50954 8.58914,5.29345 l 25.12131,35.23514 v -40.74618 h 4.73394 v 51.70944 c -4.85357,1.32178 -10.4735,-7.17626 -10.4735,-7.17626 z"
   id="path7"
   sodipodi:nodetypes="cccccsccccc"
   style="display:none" />

<path
   fill="#efefef"
   opacity="1"
   stroke="none"
   d="m 343.87993,189.68591 c -3.63611,-3.32526 -7.2225,-6.20438 -10.34851,-9.51783 -1.76495,-1.87079 -2.77237,-4.45627 -4.66806,-7.63791 5.32843,0 9.27902,-0.0589 13.22718,0.0137 6.06829,0.1116 11.37484,-4.59439 11.30346,-10.11807 -0.0779,-6.03006 -5.23114,-11.0416 -11.10309,-10.93143 -4.64285,0.0871 -9.28866,0.0175 -14.31341,0.0175 0,15.60886 0,30.98398 0,46.28803 -4.64762,0.84454 -4.87601,0.84567 -4.89106,-2.22412 -0.0807,-16.45929 -0.0381,-32.91919 -0.0381,-50.01245 9.72717,1.19324 19.38235,-2.08466 28.56107,2.90649 5.65518,3.07517 7.22909,8.45664 7.13293,13.68906 -0.0923,5.01928 -1.05148,10.84594 -7.16986,13.16064 -3.64499,1.379 -7.30838,2.70938 -10.9624,4.06119 6.30008,5.71063 13.25924,12.01868 20.6929,18.75687 -8.57303,1.81561 -12.64197,-3.65573 -17.42307,-8.45169 z"
   id="path9"
   style="display:none" />
<path
   fill="#ebebeb"
   opacity="1"
   stroke="none"
   d="m 297.70736,198.2817 -5.38401,0.10849 v -46.62054 l -16.26965,-0.0202 -0.0559,-5.83548 h 38.5784 l -0.0119,5.79445 -16.85675,-0.006 z"
   id="path10"
   sodipodi:nodetypes="ccccccccc"
   style="display:none" />
<path
   fill="#ececec"
   opacity="1"
   stroke="none"
   d="m 433.97686,164.51379 c -7.7e-4,9.79779 -7.7e-4,19.09604 -7.7e-4,28.81799 8.5979,0 17.00888,0 25.664,0 0,1.81473 0,3.21368 0,4.91769 -10.22732,0 -20.59799,0 -31.18194,0 0,-17.59701 0,-35.00643 0,-52.41879 4.03235,-0.94427 5.89145,0.28449 5.58728,4.71024 -0.30731,4.47155 -0.0678,8.98065 -0.0686,13.97287 z"
   id="path11"
   style="display:none" />
<path
   fill="#f3f3f3"
   opacity="1"
   stroke="none"
   d="m 120.58638,194.29687 c -1.29162,-1.05356 -2.2107,-2.01508 -3.13661,-2.96991 -5.17862,-5.3404 -5.40773,-6.52268 -2.60435,-13.48114 2.14515,2.78799 4.21846,5.63492 6.44829,8.35348 9.53134,11.62036 24.06091,8.21018 30.88449,-1.69574 1.87921,-2.72808 3.0339,-6.31674 7.53204,-4.3984 -1.16185,12.66561 -20.25757,25.38211 -39.12386,14.19171 z"
   id="path12"
   style="display:none" />
<path
   fill="#f4f4f4"
   opacity="1"
   stroke="none"
   d="m 145.90448,154.41521 c -7.23573,-4.8125 -14.11584,-4.05142 -21.01577,0.12879 -0.42742,-0.33258 -0.85483,-0.66516 -1.28225,-0.99774 1.47938,-2.16901 2.50518,-5.55518 4.51389,-6.30371 10.6938,-3.98499 24.83827,0.53756 30.40433,12.28796 0.70073,1.47937 1.31015,3.00202 1.94482,4.46524 -4.1405,0.79099 -4.01387,0.6792 -7.0227,-2.72964 -2.18186,-2.47199 -4.75536,-4.5983 -7.54232,-6.8509 z"
   id="path13"
   style="display:none" />
<path
   fill="#f3f3f3"
   opacity="1"
   stroke="none"
   d="m 168.13683,162.95058 c 2.22456,-3.36547 4.22035,-6.5274 6.71687,-9.22613 7.59546,-8.21072 18.70941,-10.77915 28.94071,-6.86685 16.7052,6.38778 22.80813,28.36322 10.95918,42.32202 -9.78478,11.52704 -23.20615,11.61304 -31.75136,7.81439 -15.05661,-6.6932 -18.1246,-21.1911 -14.8654,-34.04343 m 37.17303,27.73145 c 5.50898,-5.10757 10.02088,-10.42844 10.04703,-18.80945 0.0371,-11.87408 -10.93318,-22.8981 -23.65515,-21.59942 -10.23631,1.04495 -21.16849,12.45895 -18.85626,25.33441 2.75329,15.33139 20.06802,23.65072 32.46438,15.07446 z"
   id="path6"
   inkscape:label="path6"
   style="display:none" />
<path
   id="path8"
   d="m 392.68334,145.21337 c -11.38526,-0.0334 -22.68926,6.88076 -25.37305,17.25977 -3.11093,12.03072 -2.4687,26.39563 14.81055,34.51953 9.04143,4.25085 17.89335,2.86529 25.60547,-2.04297 8.56084,-5.44842 13.20721,-14.4123 12.08398,-24.61133 -1.11899,-10.16042 -5.70881,-18.95038 -16.60547,-23.17773 -1.11752,-0.43057 -1.94732,-0.52689 -2.73047,-0.77149 -2.53108,-0.79043 -5.16364,-1.16806 -7.79101,-1.17578 z m 0.83203,4.85352 c 3.52811,0.11178 7.03036,1.34344 10.43164,3.65625 7.41363,5.04116 11.112,11.78818 10.27148,20.60547 -0.0567,0.59503 -0.13955,1.18324 -0.24609,1.76367 -0.10654,0.58042 -0.23657,1.15289 -0.39062,1.7168 -0.15406,0.5639 -0.33198,1.12055 -0.53125,1.66601 -0.19928,0.54546 -0.41992,1.08036 -0.66211,1.60547 -0.2422,0.52511 -0.50624,1.04013 -0.78907,1.54297 -0.28282,0.50284 -0.58509,0.994 -0.90625,1.47265 -0.32115,0.47866 -0.66039,0.94394 -1.01757,1.39649 -0.35719,0.45255 -0.73213,0.89187 -1.12305,1.31641 -0.39092,0.42453 -0.79834,0.8339 -1.2207,1.22851 -0.84473,0.78921 -1.75033,1.51779 -2.70703,2.17578 -0.47836,0.329 -0.96976,0.64028 -1.47266,0.9336 -0.50291,0.29332 -1.01586,0.56849 -1.54102,0.82421 -0.52516,0.25573 -1.0623,0.49277 -1.60742,0.70899 -0.54512,0.21622 -1.09933,0.41114 -1.66211,0.58594 -0.56278,0.17479 -1.13279,0.32948 -1.71094,0.46093 -0.95289,0.21667 -1.88258,0.35854 -2.79101,0.43164 -6.35509,0.51533 -11.65162,-2.33326 -16.5,-6.56836 -0.01,-0.0138 -0.0178,-0.0272 -0.0273,-0.041 -0.0871,-0.0752 -0.17476,-0.14652 -0.26172,-0.22266 -3.98397,-5.91212 -6.67614,-11.74192 -5.50782,-18.71679 0.0779,-0.465 0.17219,-0.93463 0.28516,-1.41016 1.8096,-7.61694 6.9661,-12.29993 13.44336,-15.3418 2.74059,-1.28705 5.50005,-1.87795 8.24414,-1.79101 z"
   style="fill:#000000;fill-opacity:1" />
<path
   id="text16"
   style="font-size:74.6667px;font-family:Arial;-inkscape-font-specification:Arial;fill:#000000;fill-opacity:1"
   d="m 181.48803,144.66845 c -7.53472,0 -13.68338,2.51563 -18.44727,7.54687 -4.76389,5.00695 -7.14648,11.94684 -7.14648,20.81836 0,4.69097 1.02082,9.13889 3.0625,13.34375 2.04166,4.20486 5.04405,7.52257 9.00586,9.95313 3.9618,2.43055 8.45703,3.64453 13.48828,3.64453 4.64235,0 8.97005,-1.09375 12.98047,-3.28125 4.01041,-2.2118 7.10937,-5.4566 9.29687,-9.73437 2.1875,-4.27778 3.28125,-9.12674 3.28125,-14.54688 0,-5.34722 -1.04644,-10.12327 -3.13672,-14.32812 -2.06597,-4.22917 -5.07921,-7.52127 -9.04101,-9.87891 -3.96181,-2.35764 -8.40973,-3.53711 -13.34375,-3.53711 z m 211.53125,0 c -7.53472,0 -13.68339,2.51563 -18.44727,7.54687 -4.76389,5.00695 -7.14648,11.94684 -7.14648,20.81836 0,4.69097 1.02083,9.13889 3.0625,13.34375 2.04166,4.20486 5.04405,7.52257 9.00586,9.95313 3.9618,2.43055 8.45704,3.64453 13.48828,3.64453 4.64236,0 8.97005,-1.09375 12.98047,-3.28125 4.0104,-2.2118 7.10937,-5.4566 9.29687,-9.73437 2.1875,-4.27778 3.28125,-9.12674 3.28125,-14.54688 0,-5.34722 -1.04644,-10.12327 -3.13672,-14.32812 -2.06597,-4.22917 -5.07921,-7.52127 -9.04101,-9.87891 -3.96181,-2.35764 -8.40973,-3.53711 -13.34375,-3.53711 z m -265.70899,0.0371 c -1.64716,0 -3.229,0.17939 -4.78125,0.44336 l -3.16992,7.15234 c 2.26131,-1.01646 4.85514,-1.54492 7.80664,-1.54492 3.57292,0 6.53689,0.88781 8.89453,2.66211 2.35764,1.7743 4.1569,4.60526 5.39649,8.49414 l 6.96289,-1.64062 c -1.43403,-4.93403 -3.97331,-8.76216 -7.61914,-11.48438 -3.64584,-2.72222 -8.14302,-4.08203 -13.49024,-4.08203 z m 88.74024,0.91016 v 53.44921 h 6.78125 v -42 l 28.07226,42 h 7.25586 v -53.44921 h -6.78125 v 41.96484 l -28.07226,-41.96484 z m 49.98437,0 v 6.30859 h 17.60938 v 47.14062 h 7.07226 V 151.9243 h 17.6836 v -6.30859 z m 49.72852,0 v 53.44921 h 7.07422 v -23.73437 h 8.20312 c 1.82291,0 3.13541,0.0838 3.9375,0.25391 1.09375,0.26736 2.16189,0.74132 3.20703,1.42187 1.06945,0.68056 2.27257,1.87283 3.60938,3.57422 1.3368,1.70138 3.03949,4.15494 5.10547,7.36328 l 7.07226,11.12109 h 8.89649 l -9.29688,-14.54687 c -1.84722,-2.84375 -3.80512,-5.21354 -5.87109,-7.10938 -0.97222,-0.87499 -2.3941,-1.7628 -4.26563,-2.6621 5.12847,-0.70486 8.92014,-2.3583 11.375,-4.95899 2.45486,-2.6007 3.6836,-5.79623 3.6836,-9.58789 0,-2.94097 -0.74198,-5.62609 -2.22461,-8.05664 -1.48264,-2.43056 -3.46419,-4.12045 -5.94336,-5.06836 -2.47917,-0.97223 -6.0994,-1.45898 -10.86328,-1.45898 z m 111.59961,0 v 53.44921 h 33.39648 v -6.30859 h -26.32422 v -47.14062 z m -245.83789,5.14062 c 3.5243,0 6.69618,0.90061 9.51562,2.69922 2.84374,1.7743 4.99479,4.28993 6.45313,7.54687 1.48263,3.23264 2.22265,7.02432 2.22265,11.375 0,6.87847 -1.7244,12.18859 -5.17578,15.93165 -3.42708,3.74305 -7.80208,5.61523 -13.125,5.61523 -5.22569,0 -9.57704,-1.84853 -13.05273,-5.54297 -3.45139,-3.71875 -5.17774,-8.79731 -5.17774,-15.23828 0,-8.04514 1.79927,-13.7819 5.39649,-17.20898 3.62153,-3.45139 7.93641,-5.17774 12.94336,-5.17774 z m 211.53125,0 c 3.5243,0 6.69618,0.90061 9.51562,2.69922 2.84375,1.7743 4.99479,4.28993 6.45313,7.54687 1.48263,3.23264 2.22265,7.02432 2.22265,11.375 0,6.87847 -1.72439,12.18859 -5.17578,15.93165 -3.42708,3.74305 -7.80209,5.61523 -13.125,5.61523 -5.22569,0 -9.57704,-1.84853 -13.05273,-5.54297 -3.45139,-3.71875 -5.17774,-8.79731 -5.17774,-15.23828 0,-8.04514 1.79926,-13.7819 5.39649,-17.20898 3.62152,-3.45139 7.93641,-5.17774 12.94336,-5.17774 z m -70.21875,0.76563 h 16.91601 c 3.9618,0 6.85482,0.81488 8.67774,2.44335 1.84721,1.62848 2.76953,3.7066 2.76953,6.23438 0,1.72569 -0.47397,3.32986 -1.42188,4.8125 -0.94792,1.45833 -2.33334,2.52843 -4.15625,3.20898 -1.82292,0.65625 -4.34939,0.98438 -7.58203,0.98438 h -15.20312 z m -213.36329,23.08398 -4.84765,10.9375 c 0.0944,0.23894 0.16197,0.48754 0.26172,0.72461 1.89583,4.44791 4.64301,7.84939 8.24023,10.20703 3.62152,2.33333 8.31185,3.5 14.07227,3.5 5.56596,0 10.2691,-1.51845 14.10937,-4.55664 3.86458,-3.0625 6.53885,-7.49761 8.02149,-13.30664 l -7.07227,-1.78711 c -0.97222,4.49653 -2.83159,7.88716 -5.57812,10.17188 -2.74653,2.28472 -6.1007,3.42773 -10.0625,3.42773 -3.25695,0 -6.28299,-0.83854 -9.07813,-2.51563 -2.79514,-1.67708 -4.86241,-4.20551 -6.19922,-7.58398 -1.04378,-2.70611 -1.65349,-5.79017 -1.86719,-9.21875 z" /></svg>
