<?xml version="1.0" encoding="UTF-8" standalone="no"?>
<svg
   version="1.1"
   id="Layer_1"
   x="0px"
   y="0px"
   width="400.39941"
   viewBox="0 0 400.39941 394.10281"
   enable-background="new 0 0 400 600"
   xml:space="preserve"
   sodipodi:docname="qrcode_black.svg"
   inkscape:version="1.3.1 (9b9bdc1480, 2023-11-25, custom)"
   height="394.10281"
   xmlns:inkscape="http://www.inkscape.org/namespaces/inkscape"
   xmlns:sodipodi="http://sodipodi.sourceforge.net/DTD/sodipodi-0.dtd"
   xmlns="http://www.w3.org/2000/svg"
   xmlns:svg="http://www.w3.org/2000/svg"><defs
   id="defs91" /><sodipodi:namedview
   id="namedview91"
   pagecolor="#ffffff"
   bordercolor="#000000"
   borderopacity="0.25"
   inkscape:showpageshadow="2"
   inkscape:pageopacity="0.0"
   inkscape:pagecheckerboard="0"
   inkscape:deskcolor="#d1d1d1"
   inkscape:zoom="1.36"
   inkscape:cx="199.63235"
   inkscape:cy="200.73529"
   inkscape:window-width="1850"
   inkscape:window-height="1016"
   inkscape:window-x="2310"
   inkscape:window-y="27"
   inkscape:window-maximized="1"
   inkscape:current-layer="Layer_1"><inkscape:page
     x="0"
     y="0"
     width="400.39941"
     height="394.10281"
     id="page91"
     margin="0 0 0"
     bleed="0" /></sodipodi:namedview>

<path
   fill="#165262"
   opacity="1"
   stroke="none"
   d="m 156.05547,155.9958 c -1.9493,0 -3.40915,0 -5.10253,0 0,3.84927 0,7.24658 0,10.96814 4.51256,0.2186 10.43395,-0.801 10.65619,5.3941 0.24374,6.79462 -5.95438,5.61936 -10.62242,5.87921 0,3.73041 0,7.1352 0,11.11026 7.42718,0 14.70518,0 21.98317,0 7.2946,0 14.58922,0 22.06409,0 0.1081,-1.7832 0.11592,-3.09039 0.28663,-4.376 0.15198,-1.1446 0.22014,-2.42121 0.78052,-3.37091 3.33926,-5.65931 8.95642,-3.28745 13.61212,-3.25833 2.52785,0.0158 5.73586,1.63018 7.39035,3.58093 2.16931,2.55771 -0.38409,6.64847 -4.10647,7.27328 -1.92777,0.32358 -3.91672,0.28263 -6.01868,0.41522 -0.10175,1.42231 -0.19743,2.56604 -0.26314,3.71149 -0.31573,5.50494 -2.17715,7.40265 -7.79944,7.42981 -14.16617,0.0685 -28.33285,0.0231 -42.49934,0.0233 -1.65006,3e-5 -3.30011,0 -5.32555,0 0,3.65118 0,7.06008 0,10.51406 10.17388,2.57215 10.17388,2.57215 11.27754,11.55307 3.40122,0 6.82512,0 10.41312,0 0.66069,-4.44397 -1.07255,-10.72134 5.94544,-10.64465 6.78916,0.0742 4.9127,6.14636 5.56503,10.58441 1.1246,0.0923 2.23039,0.23059 3.33949,0.26618 6.03558,0.19384 7.59769,1.751 7.65877,7.83917 0.0465,4.62945 0.009,9.25973 0.009,14.45901 4.76112,0 9.04333,-0.0101 13.32548,0.002 5.88666,0.0172 9.0343,1.88901 9.21066,5.4535 0.17876,3.61276 -2.85228,5.69204 -8.69861,5.98834 -0.63908,0.0324 -1.2734,0.15854 -2.1567,0.27328 0,3.53638 0,6.95548 0,10.91974 3.74611,0 7.36671,-4.5e-4 10.9873,1.3e-4 10.35222,0.002 10.7563,0.37945 11.17542,10.75329 10.90612,0 21.83343,0 33.55847,0 0,-4.76556 0.0148,-9.68036 -0.005,-14.59497 -0.0154,-3.85889 0.80694,-7.30518 5.53232,-7.22934 4.50595,0.0723 5.71557,3.29855 5.70572,7.23608 -0.012,4.79975 -0.003,9.59952 -0.003,14.64902 3.7558,0 7.16003,0 10.81604,0 0,-7.19614 0,-14.2922 0,-21.78042 -1.90381,-0.1142 -4.18439,0.37976 -5.6543,-0.49247 -2.01831,-1.19766 -4.36911,-3.20279 -4.86722,-5.27334 -0.74289,-3.08786 1.5362,-5.49066 4.81232,-5.73441 3.97253,-0.2955 8.00668,-0.29144 11.97519,0.0441 3.56396,0.30139 5.06167,2.81717 5.05575,6.28653 -0.009,5.1478 -0.002,10.29556 -0.002,15.24286 3.41922,0.88959 7.32029,0.83435 9.37958,2.75442 1.8945,1.76648 1.80756,5.65808 2.75235,9.21085 6.1558,0 12.77274,0 19.38971,0 13.41556,0 13.41556,0 13.41559,13.65875 0,2.64643 0,5.29282 0,8.28409 3.63901,0 7.02811,0 10.43701,0 2.16446,-10.45206 2.16446,-10.45206 11.84433,-11.15949 0,-4.37561 0.007,-8.81149 -0.002,-13.24737 -0.008,-4.02506 0.24133,-8.00015 5.46148,-8.52356 3.90314,-0.39142 5.77207,2.43411 5.9765,8.49014 0.0222,0.65659 0.0949,1.31147 0.1677,2.2804 1.49384,0.0764 2.95105,0.16916 4.40976,0.22217 4.2102,0.15298 6.53052,2.32364 6.59323,6.53088 0.10181,6.83173 0.11987,13.66748 0.002,20.49857 -0.0613,3.55273 -1.78183,6.38849 -5.55145,6.46365 -4.14108,0.0825 -5.6597,-2.82965 -5.65323,-6.69309 0.002,-1.29678 -0.15234,-2.59384 -0.25418,-4.18658 -3.6282,0 -7.03314,0 -11.13513,0 0,7.54044 2.4e-4,14.97763 -3e-5,22.41486 -3.7e-4,10.2283 -0.37934,10.62887 -10.52811,11.13397 -2.81113,11.8887 -2.90063,11.94635 -16.93948,10.90488 -4.85529,-0.3602 -5.57477,-1.58793 -6.12467,-10.74033 -3.54721,0 -7.11877,0 -10.76553,0 -0.65213,4.41061 0.93713,10.63181 -6.08005,10.54059 -6.64587,-0.0864 -5.2326,-6.00791 -5.80868,-10.86307 -7.2186,0 -14.48123,0 -21.74387,0 -10.71231,-3e-5 -10.71231,-3e-5 -11.7525,-11.07098 -4.37982,0 -8.83035,0.006 -13.28085,-0.002 -5.67966,-0.0101 -8.88657,-2.11267 -8.81546,-5.76465 0.0752,-3.86102 2.68112,-5.45706 8.94802,-5.46661 4.30252,-0.007 8.60501,-10e-4 13.20426,-10e-4 0,-3.8436 0,-7.2595 0,-10.68598 -10.14438,-2.46829 -10.14438,-2.46829 -11.40372,-11.63504 -7.18397,0 -14.41313,0 -21.86694,0 -0.88484,4.20462 1.38905,10.71484 -5.73477,10.70184 -7.02425,-0.0128 -5.15029,-6.33599 -5.86869,-11.00335 -9.597,0 -19.05685,-0.009 -28.51667,0.009 -1.45852,0.003 -2.91681,0.12653 -4.64106,0.20673 0,3.67364 0,7.09012 0,10.72363 2.14315,0.16116 4.4881,-0.30759 5.98673,0.60837 2.01513,1.23166 4.6593,3.53195 4.65907,5.37329 -2.3e-4,1.84204 -2.80968,5.1348 -4.58621,5.27496 -7.78153,0.61374 -15.66397,0.6843 -23.44141,0.0766 -1.85977,-0.14532 -3.77861,-3.47055 -5.04776,-5.68933 -0.7057,-1.2337 -0.12671,-3.20224 -0.12671,-5.36978 -2.01751,0 -3.64009,0.04 -5.26005,-0.008 -3.56052,-0.10596 -5.76987,-1.88022 -5.70418,-5.51587 0.0639,-3.53705 2.26325,-5.54092 5.74765,-5.64352 5.29359,-0.15586 10.59517,-0.0407 15.83374,-0.0407 1.19035,-10.58579 1.47009,-10.86396 11.24963,-11.21332 0,-7.17957 0,-14.38587 0,-21.92267 -1.2897,-0.078 -2.57016,-0.15009 -3.84986,-0.23389 -4.74148,-0.31054 -6.84168,-2.41229 -6.94993,-7.2832 -0.11018,-4.957 -0.0244,-9.9183 -0.0244,-15.10962 -7.52425,0 -14.60694,0 -21.89522,0 -0.66086,4.4093 0.95804,10.62027 -5.8954,10.74576 -7.21192,0.13208 -4.99265,-6.37387 -5.84914,-10.7439 -1.47981,-0.0898 -2.76295,-0.19217 -4.04814,-0.24124 -5.09454,-0.19461 -6.91736,-1.87381 -7.05936,-6.95343 -0.13469,-4.8175 -0.029,-9.64175 -0.029,-14.75714 -4.47792,-0.90256 -11.07843,0.5968 -10.87224,-6.41602 0.17734,-6.03094 5.69575,-5.31506 10.42142,-5.25189 0,-3.76254 0,-7.29001 0,-11.09311 -1.11185,-0.10208 -2.23175,-0.25314 -3.35601,-0.30002 -5.54364,-0.23111 -7.36543,-2.01876 -7.39956,-7.68069 -0.0633,-10.49948 -0.019,-20.9996 -0.0195,-31.49947 -8e-5,-1.64201 -3e-5,-3.28402 -3e-5,-4.867 -10.55131,-1.61289 -10.55131,-1.61289 -11.38106,-11.96085 -7.52828,0 -15.1276,0.001 -22.726925,-9.6e-4 -1.666558,-4.7e-4 -3.338982,0.0738 -4.998444,-0.0382 -3.305275,-0.22311 -5.873108,-2.22418 -5.245964,-5.29727 0.448486,-2.19758 2.991402,-4.32062 5.108078,-5.69293 1.27549,-0.82695 3.524658,-0.15208 5.45063,-0.15208 1.008545,-4.50277 -0.922241,-11.03292 6.074485,-10.86965 6.35838,0.14836 5.46314,5.91091 5.73419,10.81659 3.69609,0 7.31837,-2e-4 10.94064,5e-5 10.20898,6.7e-4 10.58465,0.34921 11.30499,10.84062 7.19478,0 14.42868,0 22.37433,0 0,-4.7172 -0.0545,-9.48725 0.0138,-14.25553 0.0858,-5.99139 1.76784,-7.61489 7.84277,-7.64834 6.16638,-0.034 12.33412,-0.0747 18.49941,0.0147 5.08749,0.0738 6.92624,1.89824 6.99534,6.93578 0.0869,6.33206 -0.0354,12.66696 0.0457,18.99919 0.0498,3.89256 -0.82464,7.12769 -5.3311,7.60156 -3.48129,0.36606 -5.59793,-2.64547 -5.77484,-7.7239 -0.0345,-0.99067 -0.10849,-1.97994 -0.17986,-3.2466 -3.50723,0 -6.91937,0 -10.60711,0 0,3.5849 0,7.01446 0,11.14305 1.60707,0 3.20718,-0.026 4.8062,0.005 3.58551,0.0701 5.86709,2.01637 5.82782,5.47365 -0.0383,3.36914 -2.27515,5.51002 -5.79937,5.66171 -3.49276,0.15033 -6.99614,0.0544 -10.98429,0.0666 m 155.44789,134.13214 c -5.08265,0 -10.16529,0 -15.15143,0 0,11.65961 0,22.56882 0,33.49371 11.3165,0 22.34354,0 33.29602,0 0,-11.28567 0,-22.19488 0,-33.01043 -0.58032,-0.20795 -0.87866,-0.40644 -1.17841,-0.40863 -5.32281,-0.0391 -10.64581,-0.0543 -16.96618,-0.0747 z"
   id="path2"
   style="fill:#000000;fill-opacity:1" />
<path
   fill="#155161"
   opacity="1"
   stroke="none"
   d="m 83.488464,262.06043 c 1.883133,-4.77191 1.883133,-4.77191 10.406174,-5.6043 2.976784,-10.58927 2.976784,-10.58927 11.752712,-11.43299 0,-10.87198 0,-21.77206 0,-32.65167 -9.415813,-1.00067 -10.229404,0.41022 -11.444889,-11.29834 -7.190674,0 -14.415664,0 -21.885704,0 0,7.27261 0,14.36066 0,21.80811 4.387451,0.6557 10.976402,-1.30982 10.722138,6.10711 -0.233063,6.79822 -6.439881,4.53467 -10.385735,5.38782 -1.846023,10.56387 -1.846023,10.56387 -11.244316,11.24893 -1.079765,4.21036 0.997543,11.3049 -6.600849,10.80185 -6.170422,-0.40851 -4.530392,-6.26144 -5.029617,-10.28296 -10.505158,-2.77292 -10.505158,-2.77292 -11.473061,-11.75674 -1.522942,-0.0825 -3.119934,-0.2215 -4.718601,-0.24466 -3.522953,-0.051 -5.949131,-1.69971 -6.024508,-5.25696 -0.07992,-3.77173 2.367447,-5.73187 6.079222,-5.79803 5.284752,-0.0942 10.572433,-0.024 16.284763,-0.024 0,-7.75507 -2.97e-4,-15.04233 6.9e-5,-22.32956 5.34e-4,-10.6297 0.104889,-10.7438 10.853424,-11.67313 0,-7.09591 0,-14.21496 0,-21.30682 -2.958569,-0.7102 -6.697701,-0.56802 -8.640347,-2.36642 -1.944248,-1.79987 -2.093318,-5.53888 -3.348674,-9.41379 -0.757981,0 -2.517453,0.14168 -4.245762,-0.0301 -3.389961,-0.33694 -5.702954,-2.06582 -5.683064,-5.69881 0.01999,-3.65159 2.219143,-5.41748 5.77369,-5.4512 5.293716,-0.0502 10.58826,-0.013 16.116699,-0.013 0,-3.9097 0,-7.34689 0,-11.42258 -7.614125,0 -15.223744,6.2e-4 -22.833363,-5.1e-4 -1.499428,-2.3e-4 -2.999508,0.0198 -4.498153,-0.0164 -3.532748,-0.0854 -5.860888,-1.86403 -5.869105,-5.40793 -0.008,-3.46963 2.289129,-5.41139 5.7162,-5.76036 1.629513,-0.1659 3.289917,-0.0285 5.438076,-0.0285 0,-5.0022 0.03616,-9.63133 -0.01102,-14.25963 -0.04042,-3.96545 0.481972,-7.78406 5.510575,-7.74763 4.818447,0.0349 5.829917,3.61137 5.728294,7.68841 -0.02069,0.82993 -0.003,1.66082 -0.003,2.86299 3.636383,0 7.158364,0 11.104153,0 0,-1.67657 -0.140339,-3.31492 0.02844,-4.92076 0.382736,-3.64155 2.27378,-5.79023 6.165725,-5.77986 6.99733,0.0187 13.994759,-2.4e-4 20.992112,0.0142 3.709747,0.008 6.362495,1.70944 6.259765,5.54188 -0.09998,3.72978 -2.745262,5.4914 -6.432579,5.50899 -5.136589,0.0245 -10.273369,0.006 -15.974541,0.006 0,5.76675 0,11.20503 0,16.64332 0,5.47431 0,10.9486 0,17.06307 7.935044,0 15.544098,-4.7e-4 23.15316,4.6e-4 1.33281,1.5e-4 2.666008,0.0288 3.998345,0.005 3.724448,-0.0658 6.489168,1.68045 6.476988,5.37727 -0.0127,3.84891 -2.78353,5.82711 -6.704664,5.83716 -4.989724,0.0128 -9.979508,0.003 -15.334435,0.003 0,3.63016 0,7.0224 0,10.79633 4.174866,0.82879 10.921753,-1.13843 10.70076,6.09997 -0.200203,6.55744 -6.230888,4.97199 -10.753929,5.35172 0,3.59213 0,7.00375 0,10.76916 3.490066,0 6.900352,0 10.331527,0 2.716919,-10.14685 2.716919,-10.14685 11.988191,-11.35397 0,-4.89557 0.002,-9.86011 -6.9e-4,-14.82468 -0.002,-3.78412 1.24264,-6.79852 5.55726,-6.71435 4.21075,0.0821 5.53147,3.03387 5.51899,6.83462 -0.0191,5.83109 0.005,11.66233 -0.006,17.4935 -0.013,7.43772 -1.17974,8.63846 -8.5941,8.92905 -0.63854,0.025 -1.27391,0.1311 -2.18238,0.22873 0,3.58313 0,7.0159 0,10.46542 10.03115,2.44995 10.03115,2.44995 11.25747,11.82034 4.14339,0.5293 10.51655,-1.40124 10.3682,5.70047 -0.13743,6.57877 -5.95956,5.30448 -10.84704,5.56214 0,5.52084 0,10.9693 0,16.41775 0,5.49143 0,10.98285 0,16.83679 3.60088,0 6.99632,0 10.44647,0 0.14396,-0.21838 0.44626,-0.4693 0.46983,-0.74414 0.30661,-3.57461 -0.57736,-8.53772 3.75673,-9.37469 5.19228,-1.00272 10.80077,-0.33557 16.1415,0.32068 1.08239,0.13302 2.77351,3.69177 2.38906,5.21954 -0.46,1.8281 -2.6098,3.63968 -4.47132,4.58322 -1.6283,0.82532 -3.87105,0.43845 -6.43843,0.63208 0,4.91123 0.0498,9.68573 -0.0128,14.45874 -0.0753,5.73773 -1.79202,7.44269 -7.43298,7.56302 -0.99919,0.0213 -1.99919,0.003 -2.99883,0.004 -11.10455,0.002 -11.10455,0.002 -12.22665,-10.83905 -3.39419,0 -6.81524,0 -10.53188,0 -0.37118,4.539 0.62117,10.60391 -5.9906,10.57648 -6.528649,-0.0271 -5.138786,-6.05332 -5.514733,-10.47159 -4.513542,-0.72394 -10.103492,0.72138 -11.09877,-6.26917 z"
   id="path3"
   style="fill:#000000;fill-opacity:1" />
<path
   fill="#165262"
   opacity="1"
   stroke="none"
   d="m 216.64856,156.07319 c -3.43569,-0.0589 -6.41263,-0.0589 -9.64256,-0.0589 -0.18341,2.2176 0.2611,4.52613 -0.65018,5.99147 -1.24687,2.00491 -3.52093,4.64383 -5.36087,4.64865 -1.83614,0.005 -5.13629,-2.79468 -5.26907,-4.55524 -0.58652,-7.7762 -0.6263,-15.65024 -0.004,-23.42001 0.14969,-1.86952 3.67276,-4.91535 5.48971,-4.80771 1.90641,0.11291 3.94323,3.16562 5.30495,5.32356 0.76505,1.21239 0.28027,3.21344 0.37514,5.20693 3.55867,0 6.94714,0 10.78775,0 0.0929,-1.7432 0.13865,-3.50664 0.29095,-5.26082 0.27912,-3.21437 1.88082,-5.52141 5.22876,-5.6005 3.56999,-0.0843 5.57672,2.24739 5.71482,5.65078 0.22081,5.44224 0.0591,10.9 0.0591,16.79542 5.43476,0 10.38913,-0.0621 15.34127,0.017 5.2456,0.0837 6.86485,1.67579 6.9629,6.87791 0.0907,4.81147 0.0193,9.62598 0.0193,14.84125 3.78194,0 7.31467,0 11.40293,0 0,-8.27045 -0.0325,-16.5535 0.0101,-24.83617 0.0351,-6.81477 1.36581,-8.1055 8.26663,-8.1208 9.66013,-0.0214 19.32053,0.0299 28.98041,-0.0203 3.92813,-0.0204 7.2904,0.91548 7.19336,5.56154 -0.0925,4.43089 -3.28534,5.71405 -7.2608,5.69804 -8.46351,-0.0341 -16.92725,-0.0104 -25.95426,-0.0104 0,8.42021 0.0149,16.52116 -0.004,24.62205 -0.017,7.12814 -1.62836,8.71256 -8.84748,8.74332 -4.31399,0.0184 -8.62808,0.003 -13.36023,0.003 0,3.81048 0,7.32544 0,11.40017 5.10413,0 10.0571,0.0663 15.00739,-0.0213 3.86178,-0.0683 6.97769,1.39465 6.96707,5.40006 -0.0111,4.13415 -3.08478,5.91769 -7.1825,5.86648 -4.82107,-0.0603 -9.64352,-0.0141 -14.83822,-0.0141 0,3.61908 0,7.00708 0,10.22824 3.08095,0.87778 6.91608,0.93274 9.00601,2.87021 1.92429,1.78394 1.97238,5.59165 2.96292,8.89459 1.30896,0.0638 3.52628,-0.47595 4.8133,0.38123 2.10668,1.40302 4.96502,3.71436 4.96554,5.64325 4.9e-4,1.76486 -3.14093,3.93027 -5.3266,5.15228 -1.40329,0.78458 -3.58298,0.19562 -5.41464,0.19644 -10.7298,0.005 -10.75594,-0.0215 -11.66342,-10.61975 -0.2737,-0.1763 -0.56172,-0.52029 -0.82178,-0.5003 -9.2905,0.71414 -10.53546,-2.77542 -10.15878,-11.02634 0.15902,-3.48321 0.0265,-6.97976 0.0265,-11.21811 -1.88681,0 -3.63058,0 -5.37436,0 -1.7879,0 -3.57582,0 -5.69278,0 0,1.94208 0.0947,3.41385 -0.0187,4.86936 -0.28141,3.61364 -2.09909,6.44619 -5.85926,6.04162 -5.40663,-0.58169 -12.0713,3.2088 -15.91093,-3.51492 -1.78664,-3.12866 0.63336,-6.79685 4.40562,-7.29923 1.92029,-0.2557 3.90271,-0.0447 5.77632,-0.0447 1.5617,-11.28855 1.5617,-11.28852 13.03123,-11.28852 2.97442,0 5.94886,-3e-5 9.28127,-3e-5 0,-11.20755 0,-22.1066 0,-33.69281 -4.22222,0 -8.64578,0.007 -13.0693,-0.002 -7.22656,-0.0142 -8.36479,-1.12207 -8.74364,-8.25732 -0.048,-0.90341 -0.51214,-1.78474 -1.24223,-2.73523 z"
   id="path4"
   style="fill:#000000;fill-opacity:1" />
<path
   fill="#1A5564"
   opacity="1"
   stroke="none"
   d="m 19.035957,317.244 c 5.657488,-10.41263 14.191746,-15.60764 25.615479,-15.87699 7.152996,-0.16867 14.315632,-0.14706 21.469787,-0.004 16.328896,0.32754 28.242012,12.19995 28.576226,28.48171 0.146858,7.15406 0.137581,14.31553 0.0075,21.47016 -0.299713,16.4783 -12.418221,28.47055 -28.925179,28.67364 -6.989521,0.086 -13.981949,0.0914 -20.971332,6.1e-4 -16.198191,-0.21042 -28.677041,-12.23114 -28.621491,-28.38195 0.0369,-10.72965 1.228386,-21.45603 1.948414,-32.18082 0.042,-0.62564 0.4911,-1.22391 0.900642,-2.18283 m 50.372116,51.10473 c 9.409943,-2.50897 13.749436,-7.92248 13.858292,-17.50689 0.07948,-6.99802 0.119408,-13.99991 -0.02042,-20.99616 -0.202843,-10.14935 -6.824417,-16.80038 -16.976334,-17.02627 -6.995571,-0.15567 -13.998005,-0.10337 -20.996033,-0.0248 -10.695945,0.12002 -17.585462,6.66885 -17.925739,17.28259 -0.229488,7.15808 -0.226209,14.33603 0.01325,21.49368 0.327406,9.78656 6.946849,16.69257 16.733062,17.08066 8.14423,0.323 16.317448,-0.0851 25.313919,-0.30283 z"
   id="path5"
   style="fill:#000000;fill-opacity:1" />
<path
   fill="#1A5564"
   opacity="1"
   stroke="none"
   d="m 18.973137,26.20488 c 5.681551,-10.67464 14.413521,-15.82016 26.023628,-16.05831 7.152992,-0.1467205 14.313709,-0.13301 21.467186,0.005 15.697083,0.30188 27.753525,12.16403 28.204819,27.83791 0.215462,7.48285 0.200134,14.98019 0.02594,22.46484 -0.372505,16.00547 -12.256844,27.8974 -28.263756,28.29129 -7.318123,0.18007 -14.647224,0.17606 -21.966,0.0139 C 28.43541,88.40447 16.181355,76.52062 16.193281,60.57921 c 0.008,-10.73038 1.188761,-21.4606 1.890362,-32.18792 0.04085,-0.62451 0.49049,-1.22227 0.889494,-2.18602 m 8.869116,38.08932 c 3.20807,9.25236 8.173788,12.95554 17.675775,13.03909 6.815262,0.06 13.633534,0.11037 20.446877,-0.0209 10.473533,-0.20187 17.095321,-6.76394 17.290672,-17.15828 0.1343,-7.14569 0.13002,-14.29818 -0.0098,-21.44378 C 83.048634,28.6334 76.59898,21.90431 66.431301,21.46706 59.130188,21.15308 51.797757,21.17077 44.493199,21.43086 c -9.783894,0.34842 -16.685644,6.92565 -17.069008,16.63938 -0.333666,8.45443 0.112512,16.93961 0.418028,26.22437 z"
   id="path6"
   style="fill:#000000;fill-opacity:1" />
<path
   fill="#1A5564"
   opacity="1"
   stroke="none"
   d="m 374.7608,82.85708 c -2.29181,1.38806 -4.16177,3.0889 -6.32336,3.63442 -14.39246,3.63217 -29.07141,4.26345 -43.22324,-0.0937 -11.4187,-3.51563 -17.08215,-12.87949 -17.78222,-24.69008 -0.48169,-8.12604 -0.40873,-16.31752 -0.0359,-24.45464 0.69635,-15.1969 12.69644,-26.74421 27.90936,-27.09954 7.65149,-0.1787205 15.31573,-0.1917105 22.96564,0.0246 15.33114,0.4335 27.28976,12.54401 27.62863,27.91946 0.16501,7.48589 0.22909,14.98427 -0.008,22.46603 -0.28198,8.91269 -3.69186,16.45311 -11.13132,22.29343 m -21.32666,-5.5087 c 13.69855,-0.0374 20.72504,-5.51605 21.19229,-16.97653 0.29825,-7.31543 0.26392,-14.66252 -0.0258,-21.9794 -0.38984,-9.84338 -6.93122,-16.46573 -16.8089,-16.91374 -7.47931,-0.33923 -14.99817,-0.35514 -22.47708,-0.0184 -9.87983,0.44483 -16.35376,7.25273 -16.56171,17.07045 -0.15512,7.32504 -0.15302,14.65866 0.002,21.98377 0.20846,9.87184 6.82312,16.50167 16.71081,16.79145 5.65809,0.16584 11.32477,0.0381 17.96872,0.0424 z"
   id="path7"
   style="fill:#000000;fill-opacity:1" />
<path
   fill="#175362"
   opacity="1"
   stroke="none"
   d="m 336.99435,133.36482 c -7.82693,-9.3e-4 -15.15536,-0.0581 -22.48236,0.0202 -3.8211,0.0408 -6.91607,-1.19383 -6.93557,-5.34715 -0.02,-4.26406 2.98123,-5.93346 7.06903,-5.92241 12.29806,0.0333 24.59625,0.012 37.2297,0.012 0.42026,-4.67723 -0.60714,-10.77798 5.92859,-10.82306 6.52988,-0.045 5.30197,5.91332 5.57123,10.01874 0.5166,0.33145 0.77313,0.63452 1.04849,0.65268 9.54892,0.62982 10.29166,1.42377 10.29306,11.08754 7.4e-4,5.1628 0.0834,10.32735 -0.0247,15.48788 -0.10803,5.15656 -2.23459,7.36867 -7.29037,7.4161 -10.15817,0.0953 -20.31784,0.0172 -30.47687,0.0357 -3.82904,0.007 -6.7478,-1.43738 -6.83939,-5.56215 -0.10073,-4.53808 3.0047,-5.7924 7.05799,-5.70529 4.79333,0.10303 9.59063,0.0242 14.6484,0.0242 0,-3.86873 0,-7.30059 0,-11.39499 -4.75213,0 -9.52511,0 -14.79721,3e-5 z"
   id="path8"
   style="fill:#000000;fill-opacity:1" />
<path
   fill="#155161"
   opacity="1"
   stroke="none"
   d="m 244.66013,66.13612 c 4.97903,0.36812 6.68518,2.99977 6.66197,7.36246 -0.0734,13.80749 -0.0499,27.6157 -0.0106,41.42349 0.0113,3.9706 -1.101,7.22784 -5.68001,7.0901 -4.47339,-0.13455 -5.56911,-3.47934 -5.56545,-7.36523 0.01,-10.64705 0.003,-21.29412 0.003,-31.94117 -4e-5,-1.61816 0,-3.23632 0,-5.08973 -3.8943,0 -7.29947,0 -10.80699,0 -0.64432,4.55855 0.88293,10.8482 -5.92638,10.84532 -6.91224,-0.003 -4.86929,-6.52478 -5.6503,-10.6125 -13.5189,-1.09117 -10.68855,-2.77668 -10.92392,-15.52187 -0.1116,-6.04452 1.12304,-6.73663 10.90114,-7.57744 0.92153,-4.10496 -1.41403,-10.91365 6.1527,-10.53451 6.55574,0.32846 4.75738,6.35055 5.35153,10.39582 10.27443,1.26095 10.27443,1.26095 11.30458,11.52172 1.20978,0 2.48262,0 4.18926,0.004 z"
   id="path9"
   style="fill:#000000;fill-opacity:1" />
<path
   fill="#195464"
   opacity="1"
   stroke="none"
   d="m 381.16162,211.7924 c -2.22049,0.17782 -4.02911,0.26239 -6.13327,0.36075 0,7.19247 0,14.26471 0,21.6979 1.0686,0.0881 2.16745,0.2118 3.26969,0.26413 5.47393,0.26001 7.54928,2.24338 7.62292,7.61097 0.0845,6.15737 0.0667,12.31726 0.005,18.47518 -0.047,4.72916 -2.55844,8.0907 -5.94549,7.65803 -4.36689,-0.55784 -5.47382,-3.72843 -5.34128,-7.64161 0.0328,-0.96808 -0.16211,-1.94381 -0.27399,-3.1492 -1.42654,-0.10098 -2.72323,-0.25857 -4.02148,-0.27289 -4.74451,-0.0524 -7.0029,-2.55822 -7.05323,-7.16296 -0.0543,-4.96826 -0.0123,-9.93753 -0.0123,-15.48639 -5.12854,0 -9.90653,-0.10663 -14.67731,0.033 -3.98331,0.11658 -7.07419,-0.94525 -7.46539,-5.39972 -0.31611,-3.59909 2.67163,-5.68869 7.71106,-5.72256 4.63012,-0.0312 9.26055,-0.007 14.42785,-0.007 0,-4.46371 -0.006,-8.56552 10e-4,-12.66729 0.0152,-8.28681 1.34836,-9.65222 9.41971,-9.66336 1.99735,-0.003 3.99695,0.0644 5.99158,-0.009 3.35104,-0.12243 6.59775,0.99839 6.72617,4.39261 0.0812,2.14691 -2.46979,4.39346 -4.25205,6.68854 z"
   id="path10"
   style="fill:#000000;fill-opacity:1" />
<path
   fill="#185363"
   opacity="1"
   stroke="none"
   d="m 307.28943,173.47187 c 0.0116,5.40692 0.0116,10.36109 0.0116,15.58908 3.91172,0 7.33228,0 11.1019,0 0.12937,-1.84762 -0.28314,-3.92611 0.50461,-5.33209 1.16971,-2.08774 3.34232,-5.28165 4.81064,-5.13946 2.15332,0.20849 5.32745,2.65051 5.80466,4.67416 0.92834,3.93719 0.69439,8.29724 0.17032,12.38318 -0.45539,3.5506 -3.22873,5.18616 -6.89368,5.14447 -4.96314,-0.0565 -9.9274,-0.014 -14.79706,-0.014 -2.17795,10.83484 -2.17795,10.83484 -11.92245,11.46753 0,4.8656 -0.0322,9.79602 0.0101,14.7258 0.0341,3.96817 -1.12027,7.17731 -5.71823,7.0466 -4.25019,-0.12082 -5.37723,-3.25342 -5.37827,-6.9671 -0.002,-5.8226 -0.0137,-11.64527 0.002,-17.46784 0.0194,-7.306 1.25376,-8.54882 8.67026,-8.84066 0.63303,-0.0249 1.26227,-0.14451 2.39682,-0.28046 0,-7.58667 -0.001,-15.02383 8.8e-4,-22.461 3.7e-4,-1.49716 -0.062,-2.99902 0.0331,-4.49054 0.21264,-3.33426 1.70483,-6.03497 5.19882,-6.28625 3.72088,-0.26758 5.80548,1.98199 5.99423,6.24862 z"
   id="path11"
   style="fill:#000000;fill-opacity:1" />
<path
   fill="#175362"
   opacity="1"
   stroke="none"
   d="m 174.8239,32.80114 c -1.09104,3.49838 -1.7292,6.98047 -2.49924,11.18205 8.75046,0 16.51874,-0.002 24.287,0.002 1.4988,8.2e-4 3.00321,-0.0504 4.49524,0.0577 3.31612,0.24016 5.87409,2.28156 5.23982,5.32497 -0.447,2.14499 -3.10487,4.17659 -5.24659,5.49202 -1.30518,0.80162 -3.50417,0.14795 -5.46601,0.14795 -0.8863,4.70703 1.15894,11.43182 -6.40898,10.89946 -6.10515,-0.42948 -4.95179,-6.00234 -5.30914,-10.83911 -4.23044,0 -8.48503,0.003 -12.73962,-6.2e-4 -8.07386,-0.006 -8.92861,-0.86193 -9.27515,-9.2167 -0.0194,-0.46896 -0.17859,-0.93213 -0.36542,-1.85681 -1.46683,0 -2.92064,0.0461 -4.37063,-0.009 -4.2215,-0.15962 -6.42785,-2.35484 -6.44895,-6.60326 -0.0784,-15.78119 -1.2875,-16.41333 15.00363,-16.04879 3.66263,0.082 7.32866,0.0253 10.99303,0.0113 3.92764,-0.015 7.22139,1.14605 7.2236,5.67824 0.002,4.47372 -3.17712,5.80966 -7.16063,5.75489 -0.49957,-0.007 -0.9994,0.004 -1.95196,0.0235 z"
   id="path12"
   style="fill:#000000;fill-opacity:1" />
<path
   fill="#175362"
   opacity="1"
   stroke="none"
   d="m 26.556946,276.11567 c -2.396486,1.06238 -5.221056,2.93567 -6.621174,2.17771 -1.868755,-1.01169 -3.529278,-3.99976 -3.698351,-6.25733 -0.484042,-6.46319 -0.277005,-12.98849 -0.135736,-19.48486 0.109136,-5.01877 2.390148,-7.06213 7.53305,-7.20093 1.165724,-0.0315 2.333016,-0.005 3.499584,-0.005 10.548821,-3e-5 10.933525,0.34342 11.889485,10.61258 10.23381,2.84278 10.23381,2.84278 11.319931,11.56244 10.087822,1.40695 10.087822,1.40695 11.025505,11.55533 1.557934,0 3.176628,-0.0823 4.784088,0.017 3.446014,0.21292 5.816971,1.88708 5.802742,5.51721 -0.01398,3.56384 -2.157272,5.43112 -5.749725,5.50757 -1.665841,0.0354 -3.332821,0.0221 -4.999287,0.0226 -10.648266,0.003 -10.648266,0.002 -11.590061,-10.50442 -10.44162,-1.85398 -10.44162,-1.85398 -11.219074,-11.2692 -3.50169,0 -7.041905,0 -10.735032,0 -0.306133,2.51386 -0.602966,4.95133 -1.105945,7.74945 z"
   id="path13"
   style="fill:#000000;fill-opacity:1" />
<path
   fill="#1A5564"
   opacity="1"
   stroke="none"
   d="m 273.94293,47.75155 c -0.1694,4.19187 -1.72204,7.36276 -5.77429,7.13384 -6.66049,-0.37627 -5.14578,-6.1003 -5.71088,-10.24607 -10.7895,-2.17357 -10.7895,-2.17357 -11.41784,-11.4631 -3.49189,0 -7.00992,0 -11.01891,0 0,1.94374 0.62727,4.09425 -0.14587,5.44057 -1.1827,2.05946 -3.28368,4.87342 -5.08326,4.93894 -1.82661,0.0665 -5.0194,-2.56481 -5.39006,-4.4515 -0.81703,-4.15898 -0.59783,-8.63465 -0.10775,-12.90139 0.39001,-3.39564 3.06041,-4.90991 6.52478,-4.87757 4.96418,0.0463 9.92914,0.0118 15.19929,0.0118 0.1024,-1.66859 0.19217,-2.94512 0.25708,-4.22293 0.19045,-3.74949 1.73407,-6.83633 5.75881,-6.78163 3.94729,0.0537 5.67465,2.9998 5.68573,6.84809 0.0143,4.96549 0.004,9.93104 0.004,15.54018 5.1911,0 9.95324,0.0764 14.71167,-0.0237 3.9613,-0.0832 7.36312,1.03319 7.38543,5.45828 0.0213,4.21242 -3.03659,6.08089 -7.13205,5.81424 -2.55221,-0.16618 -4.30639,0.20909 -3.74539,3.78192 z"
   id="path14"
   style="fill:#000000;fill-opacity:1" />
<path
   fill="#165262"
   opacity="1"
   stroke="none"
   d="m 161.9339,73.07011 c -2e-5,5.31828 -2e-5,10.13994 -2e-5,15.3255 3.62625,0 7.01798,0 10.80407,0 0.11836,-1.86551 -0.39457,-4.19818 0.51338,-5.62964 1.33374,-2.10274 3.49421,-4.66408 5.64409,-5.03157 3.08425,-0.52722 4.95158,2.13666 5.15063,5.4332 0.01,0.16617 0.0152,0.3329 0.0154,0.49937 0.0181,15.76193 1.61754,16.7797 -15.22322,16.34133 -3.32881,-0.0866 -6.66193,0.007 -9.99281,-0.0167 -6.31104,-0.0448 -8.09093,-1.73305 -8.13155,-7.92966 -0.0555,-8.46025 -0.0138,-16.92114 -0.0138,-25.93415 -2.24025,0 -4.32953,0.59414 -5.71777,-0.13909 -2.0882,-1.10292 -4.67291,-2.84321 -5.2627,-4.83954 -0.90692,-3.06988 1.4675,-5.59077 4.59619,-5.91792 4.11606,-0.43037 8.34444,-0.39957 12.46517,0.0184 3.41711,0.34654 5.09395,2.88221 5.13042,6.33172 0.0387,3.66373 0.0176,7.3281 0.0226,11.48882 z"
   id="path15"
   style="fill:#000000;fill-opacity:1" />
<path
   fill="#1B5665"
   opacity="1"
   stroke="none"
   d="m 206.55014,355.99775 c 0.0865,-5.13507 0.0694,-9.78775 0.12695,-14.43948 0.0522,-4.21884 2.19319,-6.46085 6.4634,-6.50272 3.15661,-0.031 6.3145,-0.0379 9.47064,0.0146 3.68597,0.0612 6.29089,1.85376 6.22647,5.61554 -0.0633,3.69772 -2.53694,5.57376 -6.33366,5.46097 -1.30758,-0.0389 -2.61728,-0.006 -4.24144,-0.006 0,3.65329 0,7.05789 0,11.19162 4.65814,0 9.39351,-0.0486 14.12744,0.0132 5.09048,0.0665 7.8872,2.13714 7.60687,5.80371 -0.36702,4.80029 -3.74647,5.68249 -7.80237,5.66027 -9.63687,-0.0528 -19.27432,0.007 -28.91136,-0.0274 -4.87534,-0.0175 -8.09242,-2.26099 -7.79246,-5.68356 0.4048,-4.61887 3.57913,-5.90341 7.75056,-5.81534 1.07315,0.0227 2.15822,-0.51962 3.30896,-1.28522 z"
   id="path16"
   style="fill:#000000;fill-opacity:1" />
<path
   fill="#1A5564"
   opacity="1"
   stroke="none"
   d="m 128.08084,306.48677 c -0.10473,-1.89689 -0.18961,-3.35013 -0.29088,-5.08426 -5.30327,0 -10.27214,-0.0381 -15.24014,0.0112 -4.5977,0.0456 -6.70715,-2.23734 -6.6402,-6.75663 0.0468,-3.16034 -0.0369,-6.32309 0.0383,-9.48236 0.0823,-3.46179 1.76448,-5.94296 5.32853,-5.97201 3.77572,-0.0308 5.59313,2.46683 5.71364,6.16617 0.0471,1.44686 0.008,2.89654 0.008,4.74997 4.72311,0 9.01446,-0.009 13.30578,0.002 7.40584,0.0193 8.70093,1.25137 9.05733,8.54813 0.0317,0.65036 0.14486,1.29678 0.30393,2.66555 4.78274,0 9.52846,-0.0443 14.27295,0.0123 4.84975,0.0579 8.23429,2.38648 7.84853,5.71799 -0.52251,4.51279 -3.70421,5.82312 -7.87653,5.75091 -5.98747,-0.10357 -11.97972,-0.11151 -17.96681,0.003 -4.24818,0.0812 -7.07734,-1.46048 -7.86212,-6.33184 z"
   id="path17"
   style="fill:#000000;fill-opacity:1" />
<path
   fill="#195464"
   opacity="1"
   stroke="none"
   d="m 307.59927,250.09034 c 1.78186,-5.85275 6.7103,-4.3359 11.07627,-5.11331 0,-4.73346 0.0532,-9.34088 -0.016,-13.94647 -0.0605,-4.02683 0.71903,-7.81934 5.55222,-7.7865 4.64661,0.0315 5.89523,3.59476 5.73502,7.73147 -0.0319,0.82285 -0.005,1.64802 -0.005,2.73096 4.42081,0.91452 11.04172,-0.70477 10.79852,6.41715 -0.2193,6.42239 -6.21408,5.04147 -10.34885,5.36993 -1.35659,10.5611 -1.35659,10.5611 -11.45944,11.70636 -0.0761,1.55005 -0.0523,3.17593 -0.25595,4.77277 -0.42633,3.34234 -2.20923,5.86679 -5.6886,5.84445 -3.43747,-0.022 -5.45202,-2.45017 -5.61026,-5.85397 -0.1773,-3.81476 0.0496,-7.64835 0.22171,-11.87284 z"
   id="path18"
   style="fill:#000000;fill-opacity:1" />
<path
   fill="#155161"
   opacity="1"
   stroke="none"
   d="m 274.00482,98.6956 c 0.27969,0.69909 0.47449,1.10759 0.7298,1.14978 3.28458,0.54269 8.16595,-1.19956 9.15509,3.06479 1.15918,4.9974 0.98514,10.49276 0.36673,15.64949 -0.43515,3.62822 -4.20804,3.94601 -7.27667,3.51802 -4.65451,-0.64922 -10.26627,2.43991 -13.68683,-3.14429 -0.63196,-1.03168 -0.55695,-2.58441 -0.56265,-3.89771 -0.0434,-9.99314 0.003,-19.9867 -0.0416,-29.97984 -0.0174,-3.86751 0.84351,-7.13302 5.3819,-7.53174 3.47189,-0.30503 5.78949,2.88639 5.85034,7.71952 0.0545,4.3298 0.0215,8.6607 0.0839,13.45198 z"
   id="path19"
   style="fill:#000000;fill-opacity:1" />
<path
   fill="#185463"
   opacity="1"
   stroke="none"
   d="m 133.38202,357.38026 c 4.06636,0.64184 6.25919,2.64072 5.73169,6.4845 -0.53507,3.89914 -3.46971,4.91565 -6.95157,4.91473 -0.99637,-2.7e-4 -1.99274,0.003 -2.98911,0.004 -11.40373,0.0104 -11.43687,-0.0185 -12.50995,-11.05292 -4.04387,-1.11255 -10.91665,1.39847 -10.50025,-6.25839 0.35088,-6.45188 6.13377,-5.11984 10.85914,-5.49564 0,-1.794 -0.139,-3.42044 0.0282,-5.01477 0.37894,-3.61377 2.35599,-6.2568 6.08946,-5.78869 5.36633,0.67288 12.06377,-3.16614 15.75744,3.72787 1.57846,2.94611 -0.71773,6.51627 -4.1673,7.06592 -1.93709,0.30865 -3.9637,0.0556 -6.29784,0.0556 0,3.84979 0,7.39856 0,11.32981 1.58458,0 3.05643,0 4.95011,0.0279 z"
   id="path20"
   style="fill:#000000;fill-opacity:1" />
<path
   fill="#165262"
   opacity="1"
   stroke="none"
   d="m 360.06552,178.12721 c 6.48523,6.1e-4 12.48135,0.0122 18.47739,-0.002 4.02734,-0.01 7.21093,1.60843 7.13815,5.86905 -0.068,3.97843 -3.09842,5.42932 -6.98581,5.39612 -10.32584,-0.0882 -20.65304,-0.0615 -30.9794,-0.0139 -4.29681,0.0198 -6.54816,-2.04962 -6.69443,-6.28918 -0.10901,-3.16071 -0.0952,-6.33084 0.006,-9.49222 0.1142,-3.57571 1.68625,-6.39932 5.53171,-6.39017 3.76019,0.009 5.5617,2.54105 5.50992,6.30628 -0.0181,1.31888 -0.003,2.63818 -0.003,4.61609 2.63974,0 5.0751,0 7.9996,0 z"
   id="path21"
   style="fill:#000000;fill-opacity:1" />
<path
   fill="#165262"
   opacity="1"
   stroke="none"
   d="m 139.30179,87.16252 c 10e-6,1.63517 0.005,2.80183 -8.1e-4,3.96846 -0.0336,7.28398 -1.36946,8.63546 -8.7413,8.87455 -0.64756,0.021 -1.29274,0.11449 -2.24366,0.20252 -0.0836,1.52214 -0.19751,2.96976 -0.23616,4.41936 -0.11396,4.2759 -2.29833,6.41641 -6.56638,6.43063 -3.16654,0.0106 -6.33459,0.0648 -9.49933,-0.0109 -3.47618,-0.0831 -5.86697,-1.77281 -5.94117,-5.37249 -0.0794,-3.8534 2.25348,-5.69211 6.06211,-5.68625 1.4619,0.002 2.92382,3.6e-4 4.32412,3.6e-4 1.52269,-10.58769 1.52269,-10.58769 11.33763,-11.62634 0.0887,-1.37593 0.15186,-2.81805 0.27997,-4.25439 0.33101,-3.71123 1.86414,-6.71146 5.99767,-6.53701 3.83595,0.16189 5.29632,2.97167 5.22465,6.62304 -0.0163,0.83296 8.6e-4,1.66656 0.003,2.96843 z"
   id="path22"
   style="fill:#000000;fill-opacity:1" />
<path
   fill="#1D5766"
   opacity="1"
   stroke="none"
   d="m 123.65903,43.78726 c -7.58436,-0.29224 -6.49452,-5.90567 -6.79211,-10.79073 -2.00425,-0.09 -4.16464,0.43858 -5.46339,-0.38751 -2.10333,-1.33788 -4.62619,-3.31299 -5.18012,-5.47757 -0.77735,-3.03763 1.6108,-5.54121 4.85408,-5.64539 7.62615,-0.24497 15.2704,-0.22642 22.89761,0.005 3.18644,0.0968 5.23362,2.17913 5.22825,5.53757 -0.005,3.31915 -1.95691,5.19839 -5.17407,5.64164 -1.78287,0.24566 -3.60464,0.20876 -5.58104,0.30783 -0.85603,3.90093 0.84162,8.82273 -4.78921,10.80877 z"
   id="path23"
   style="fill:#000000;fill-opacity:1" />
<path
   fill="#165262"
   opacity="1"
   stroke="none"
   d="m 341.91983,248.44807 c 2.33228,-1.09183 4.94852,-2.90708 6.53921,-2.2478 1.70649,0.70721 3.32047,3.68634 3.45154,5.76986 0.42817,6.80426 0.16013,13.65213 0.16422,20.48325 0.002,3.66751 -1.55792,6.38577 -5.39096,6.46072 -3.82742,0.0748 -5.68225,-2.61432 -5.63208,-6.23797 0.11004,-7.95578 0.45285,-15.90833 0.86807,-24.22806 z"
   id="path24"
   style="fill:#000000;fill-opacity:1" />
<path
   fill="#165262"
   opacity="1"
   stroke="none"
   d="m 284.9953,83.06274 c 0.006,-3.82112 -0.10297,-7.15485 0.0477,-10.47681 0.16174,-3.56805 1.87378,-6.37868 5.67429,-6.26344 3.72482,0.11296 5.38732,2.77875 5.36401,6.50223 -0.0427,6.82336 -0.009,13.6472 -0.006,20.47084 0.002,3.66374 -1.61386,6.47618 -5.37393,6.49807 -4.01239,0.0234 -5.67236,-2.91941 -5.69913,-6.75178 -0.0221,-3.16203 -0.006,-6.32434 -0.007,-9.97911 z"
   id="path25"
   style="fill:#000000;fill-opacity:1" />
<path
   fill="#165262"
   opacity="1"
   stroke="none"
   d="m 173.11935,329.13069 c 0.91791,-3.8068 3.12764,-5.23081 6.63631,-5.17478 6.66374,0.10636 13.33058,0.0626 19.99574,0.0209 3.87049,-0.0242 6.81256,1.44064 6.72771,5.59024 -0.0762,3.72833 -2.76459,5.47885 -6.44859,5.4899 -6.832,0.0205 -13.66413,0.005 -20.49619,0.008 -3.74286,0.002 -5.90442,-1.83081 -6.41498,-5.93414 z"
   id="path26"
   style="fill:#000000;fill-opacity:1" />
<path
   fill="#185463"
   opacity="1"
   stroke="none"
   d="m 278.75781,379.88825 c -1.84024,-2.21902 -4.63034,-4.51556 -4.42108,-6.49508 0.65448,-6.19187 6.37943,-4.15805 10.43887,-4.82059 0.13062,-2.24554 -0.37991,-4.57666 0.5113,-6.07294 1.20602,-2.02481 3.3013,-4.45727 5.35162,-4.8218 3.0646,-0.54487 5.22076,1.88742 5.35916,5.21075 0.15894,3.81763 0.21176,7.65595 -3.4e-4,11.46796 -0.19464,3.49835 -2.36303,5.44876 -5.84433,5.58197 -3.65246,0.13974 -7.31475,0.0223 -11.3952,-0.0503 z"
   id="path27"
   style="fill:#000000;fill-opacity:1" />
<path
   fill="#185463"
   opacity="1"
   stroke="none"
   d="m 220.3951,322.83424 c -4.20025,-6.06033 -2.6644,-12.34671 -1.47197,-18.39881 0.24821,-1.25982 3.5719,-2.98721 5.06718,-2.65405 1.8399,0.40991 3.75154,2.49664 4.69296,4.33866 0.82595,1.61608 0.35495,3.89505 0.48256,6.38369 1.93375,0.10831 4.17784,-0.37454 5.67955,0.46714 2.02443,1.13461 4.7719,3.25097 4.82399,5.01638 0.056,1.89844 -2.47885,5.34867 -4.17846,5.54328 -4.83765,0.55386 -9.82558,-0.20481 -15.09581,-0.69629 z"
   id="path28"
   style="fill:#000000;fill-opacity:1" />
<path
   fill="#185463"
   opacity="1"
   stroke="none"
   d="m 161.93916,279.9477 c -0.033,8.96729 -1.25975,10.18753 -9.80029,10.19568 -2.32665,0.002 -4.65518,0.0537 -6.97951,-0.0211 -3.30177,-0.10626 -5.46774,-1.86206 -5.62356,-5.13046 -0.16785,-3.52127 2.03727,-5.48511 5.45599,-5.89575 1.63033,-0.19583 3.30365,-0.0337 5.74066,-0.0337 0,-1.956 -0.0774,-3.70053 0.0167,-5.43573 0.17666,-3.25788 1.79284,-5.41928 5.18073,-5.5423 3.5916,-0.13046 5.51132,2.01956 5.91418,5.42926 0.23259,1.96854 0.0764,3.98306 0.0951,6.43417 z"
   id="path29"
   style="fill:#000000;fill-opacity:1" />
<path
   fill="#185463"
   opacity="1"
   stroke="none"
   d="m 241.74536,344.31715 c -0.65658,-5.51343 -1.48769,-10.76673 -1.0764,-15.92084 0.12672,-1.58822 3.73582,-4.1337 5.58257,-3.99563 1.77944,0.13302 3.72795,2.95175 4.86645,4.99957 0.77918,1.40146 0.29723,3.50406 0.39839,5.71521 2.10382,0 4.30512,-0.6543 5.6107,0.1484 2.13041,1.30973 4.77491,3.34864 5.20459,5.48224 0.6023,2.99094 -1.87527,5.41794 -5.21264,5.27945 -5.03409,-0.20895 -10.04755,-0.91519 -15.37366,-1.7084 z"
   id="path30"
   style="fill:#000000;fill-opacity:1" />
<path
   fill="#185363"
   opacity="1"
   stroke="none"
   d="m 209.19052,31.65953 c -2.69086,-3.51813 -3.58699,-15.88128 -1.45843,-18.80689 0.73696,-1.01295 2.00442,-2.23427 3.09008,-2.296 4.62004,-0.26263 9.34352,-0.6184805 13.85508,0.12151 1.66284,0.27274 4.13742,3.65076 3.91226,5.29306 -0.26724,1.94914 -2.80521,3.95508 -4.82143,5.16771 -1.35904,0.81735 -3.51836,0.30408 -5.25203,0.38299 -1.84877,10.8133 -2.78473,11.86868 -9.32553,10.13762 z"
   id="path31"
   style="fill:#000000;fill-opacity:1" />
<path
   fill="#185363"
   opacity="1"
   stroke="none"
   d="m 16.06266,210.24665 c 0.145851,-8.05075 1.562117,-9.4743 9.018032,-9.48797 2.489973,-0.005 4.98037,-0.007 7.469906,0.0326 3.518959,0.0553 5.895043,1.8374 5.947849,5.33517 0.05167,3.42206 -2.242118,5.41709 -5.650463,5.79749 -1.626991,0.18158 -3.291025,0.0313 -5.557501,0.0313 0,1.93344 0.05697,3.54092 -0.01167,5.14301 -0.150101,3.50308 -1.994494,5.80758 -5.487383,5.83547 -3.508511,0.0281 -5.325701,-2.40728 -5.650875,-5.76538 -0.207137,-2.13912 -0.06406,-4.31219 -0.07789,-6.92163 z"
   id="path32"
   style="fill:#000000;fill-opacity:1" />
<path
   fill="#1F5968"
   opacity="1"
   stroke="none"
   d="m 253.82428,358.57545 c 5.3613,-0.49231 10.4559,-1.19199 15.44281,-0.72986 1.67233,0.15497 4.38895,3.37699 4.25772,5.00617 -0.16171,2.0076 -2.53763,5.05844 -4.4209,5.45535 -4.11539,0.86731 -8.58337,0.80524 -12.79754,0.26559 -4.91977,-0.62994 -5.99775,-5.04095 -2.48209,-9.99725 z"
   id="path33"
   style="fill:#000000;fill-opacity:1" />
<path
   fill="#225B6A"
   opacity="1"
   stroke="none"
   d="m 206.74887,115.48718 c -0.37613,4.24873 -2.13963,6.9221 -6.28236,6.56018 -4.18264,-0.3654 -5.22942,-3.52345 -5.21415,-7.18843 0.0132,-3.15451 -0.13694,-6.32735 0.15261,-9.45812 0.29037,-3.13978 2.06013,-5.34178 5.45309,-5.35873 3.56528,-0.0178 5.55336,2.07963 5.79207,5.54626 0.21634,3.14177 0.0827,6.30765 0.0987,9.89884 z"
   id="path34"
   style="fill:#000000;fill-opacity:1" />
<path
   fill="#195464"
   opacity="1"
   stroke="none"
   d="m 290.88657,32.65992 c -4.38834,-0.58175 -5.91962,-3.1674 -5.89554,-6.97343 0.021,-3.3198 -0.62668,-6.84413 0.29773,-9.89075 0.66787,-2.20122 3.22201,-4.98309 5.30298,-5.336 3.23089,-0.5479605 5.37286,2.09889 5.45315,5.65312 0.075,3.31909 0.0283,6.6409 0.038,9.96151 0.01,3.37516 -1.29093,5.78082 -5.19635,6.58555 z"
   id="path35"
   style="fill:#000000;fill-opacity:1" />
<path
   fill="#185463"
   opacity="1"
   stroke="none"
   d="m 17.004606,164.08381 c -1.087102,-5.38657 0.546858,-7.86272 5.228792,-8.0605 3.805367,-0.16075 7.709553,-0.44113 11.402146,0.24046 1.80563,0.3333 4.063248,2.49848 4.568748,4.27491 0.42376,1.48916 -0.929504,4.17422 -2.322788,5.34994 -3.126369,2.63822 -15.334263,1.38947 -18.876898,-1.80481 z"
   id="path36"
   style="fill:#000000;fill-opacity:1" />
<path
   fill="#185463"
   opacity="1"
   stroke="none"
   d="m 114.06165,334.20466 c -5.41396,1.12369 -7.8553,-0.44424 -8.07857,-5.11124 -0.18128,-3.78933 -0.43412,-7.67828 0.2353,-11.36117 0.32686,-1.79822 2.48771,-4.21072 4.1765,-4.54697 1.68456,-0.33545 4.46177,1.08588 5.61949,2.60575 2.46856,3.24063 1.07521,14.91647 -1.95272,18.41363 z"
   id="path37"
   style="fill:#000000;fill-opacity:1" />
<path
   fill="#195464"
   opacity="1"
   stroke="none"
   d="m 230.3773,265.6746 c -2.17704,-5.70373 -0.31041,-8.72897 5.21067,-8.892 3.63717,-0.10742 7.37689,-0.41647 10.88417,0.29038 1.77496,0.35769 4.29016,2.69446 4.39055,4.26907 0.12361,1.93881 -1.63269,5.49002 -3.07964,5.77319 -5.6855,1.11252 -11.68063,2.59031 -17.40575,-1.44064 z"
   id="path38"
   style="fill:#000000;fill-opacity:1" />
<path
   fill="#1A5564"
   opacity="1"
   stroke="none"
   d="m 180.30603,257.05848 c 3.31786,1.65445 4.85567,4.31009 3.16435,7.02533 -1.15848,1.8598 -3.90768,3.31058 -6.17863,3.7554 -3.18126,0.62311 -6.59912,0.36344 -9.87876,0.0691 -3.37718,-0.30311 -5.52665,-2.32661 -5.35516,-5.89808 0.15723,-3.2742 2.09779,-5.17041 5.44209,-5.2063 4.12697,-0.0443 8.25583,0.0876 12.80611,0.25458 z"
   id="path39"
   style="fill:#000000;fill-opacity:1" />
<path
   fill="#1A5564"
   opacity="1"
   stroke="none"
   d="m 152.95697,345.06578 c -3.80989,-6.11188 -2.53438,-12.34803 -1.24109,-18.37381 0.25642,-1.19474 3.78938,-2.81855 5.19684,-2.35965 1.94697,0.63479 4.3443,2.85769 4.70828,4.75384 0.73477,3.82758 0.56612,7.92951 0.14472,11.85105 -0.4646,4.32373 -3.49001,5.67733 -8.80875,4.12857 z"
   id="path40"
   style="fill:#000000;fill-opacity:1" />
<path
   fill="#185363"
   opacity="1"
   stroke="none"
   d="m 223.06012,100.04618 c 4.29573,0.33161 5.88103,2.70972 5.9281,6.35617 0.0429,3.3279 0.18164,6.66999 -0.0563,9.9818 -0.24091,3.35316 -1.96111,5.75047 -5.66236,5.65956 -3.69597,-0.0908 -5.25378,-2.45883 -5.32342,-5.91972 -0.067,-3.32736 -0.0528,-6.65766 -0.005,-9.98567 0.0452,-3.17769 1.35234,-5.44205 5.11945,-6.09214 z"
   id="path41"
   style="fill:#000000;fill-opacity:1" />
<path
   fill="#185363"
   opacity="1"
   stroke="none"
   d="m 172.99202,165.23463 c 0.21223,-2.25046 -0.16849,-4.51056 0.78401,-5.72479 1.24263,-1.58411 3.64437,-3.34504 5.35729,-3.17 1.72741,0.17653 4.33696,2.45253 4.60025,4.11839 0.66551,4.21054 0.77848,8.69943 -0.0139,12.86234 -0.35376,1.85861 -3.45343,4.48156 -5.234,4.42593 -1.84381,-0.0576 -4.30812,-2.6311 -5.19714,-4.67212 -0.91693,-2.10504 -0.26312,-4.89432 -0.29654,-7.83975 z"
   id="path42"
   style="fill:#000000;fill-opacity:1" />
<path
   fill="#225B6A"
   opacity="1"
   stroke="none"
   d="m 75.786072,256.30601 c -1.330223,-2.47491 -3.332077,-4.96646 -3.039269,-7.1503 0.404846,-3.01935 3.353638,-4.34628 6.565094,-3.47809 3.292305,0.89002 4.44233,3.37284 3.847046,6.49424 -0.730789,3.83206 -3.374542,4.98797 -7.372871,4.13415 z"
   id="path43"
   style="fill:#000000;fill-opacity:1" />
<path
   fill="#225B6A"
   opacity="1"
   stroke="none"
   d="m 87.575577,245.214 c -1.62011,-2.11746 -3.659035,-4.09512 -3.873123,-6.25375 -0.136612,-1.37748 2.194976,-3.84696 3.8479,-4.31485 1.632339,-0.46204 4.454056,0.43008 5.555115,1.73764 1.107536,1.31527 1.652115,4.52694 0.793434,5.72894 -1.171387,1.63968 -3.905251,2.16312 -6.323326,3.10202 z"
   id="path44"
   style="fill:#000000;fill-opacity:1" />
<path
   fill="#1F5968"
   opacity="1"
   stroke="none"
   d="m 317.46619,366.48664 c -2.55652,2.59571 -5.38483,3.13608 -7.73136,0.95987 -1.32608,-1.22983 -2.45126,-3.96652 -1.97906,-5.50711 0.54718,-1.78512 2.73916,-3.84509 4.58319,-4.29925 4.48709,-1.10501 7.00561,3.17294 5.12723,8.84649 z"
   id="path45"
   style="fill:#000000;fill-opacity:1" />
<path
   fill="#225B6A"
   opacity="1"
   stroke="none"
   d="m 139.75291,376.27003 c -0.87519,-4.01196 0.33104,-6.6319 4.13721,-7.37433 3.12609,-0.60977 5.60442,0.56778 6.48865,3.85269 0.86189,3.20188 -0.44307,6.16699 -3.47626,6.5687 -2.18568,0.2894 -4.67514,-1.71515 -7.1496,-3.04706 z"
   id="path46"
   style="fill:#000000;fill-opacity:1" />
<path
   fill="#225B6A"
   opacity="1"
   stroke="none"
   d="m 242.48282,302.51203 c 3.3898,-1.78372 6.52687,-1.52493 7.91803,1.64417 0.80844,1.84173 0.42499,5.02469 -0.72545,6.71939 -1.79349,2.64191 -4.98386,2.60269 -7.413,0.4696 -3.03297,-2.66339 -2.9037,-5.70648 0.22042,-8.83316 z"
   id="path47"
   style="fill:#000000;fill-opacity:1" />
<path
   fill="#1F5968"
   opacity="1"
   stroke="none"
   d="m 257.004,144.69712 c -2.13094,-1.8564 -4.53775,-3.46493 -5.38259,-5.67151 -0.43768,-1.14318 1.4982,-4.03645 3.05432,-4.92198 2.99669,-1.70529 5.83465,-0.50789 7.41747,2.62207 1.6904,3.34262 -0.13834,6.29155 -5.0892,7.97142 z"
   id="path48"
   style="fill:#000000;fill-opacity:1" />
<path
   fill="#225B6A"
   opacity="1"
   stroke="none"
   d="m 27.152138,140.48611 c -2.118412,1.61684 -4.154656,3.7961 -6.235203,3.83926 -1.53887,0.0319 -3.956259,-2.49038 -4.456045,-4.29698 -0.427939,-1.54684 0.845102,-4.26008 2.233709,-5.40329 1.207699,-0.99423 4.323288,-1.34897 5.354513,-0.49225 1.607331,1.33538 2.164181,3.93518 3.103026,6.35326 z"
   id="path49"
   style="fill:#000000;fill-opacity:1" />
<path
   fill="#1F5968"
   opacity="1"
   stroke="none"
   d="m 203.14983,88.25497 c -3.51352,0.97516 -6.30288,0.0523 -7.1464,-3.03262 -0.50618,-1.85122 0.0786,-4.8976 1.37996,-6.09436 1.30565,-1.20069 4.41139,-1.5694 6.19682,-0.8953 4.07976,1.54038 3.88584,6.22212 -0.43038,10.02228 z"
   id="path50"
   style="fill:#000000;fill-opacity:1" />
<path
   fill="#1F5968"
   opacity="1"
   stroke="none"
   d="m 322.65308,368.93553 c 5.81811,0.24765 8.85678,3.72336 6.55551,7.47928 -1.01139,1.65066 -3.61023,3.34524 -5.37226,3.23095 -1.73166,-0.11233 -4.07254,-2.18298 -4.79281,-3.9469 -1.15747,-2.83432 0.0494,-5.48822 3.60956,-6.76333 z"
   id="path51"
   style="fill:#000000;fill-opacity:1" />
<path
   fill="#245C6B"
   opacity="1"
   stroke="none"
   d="m 91.239449,279.53306 c 1.267219,2.39398 2.929,4.64957 2.837074,6.83127 -0.05493,1.30353 -2.714668,3.2431 -4.455597,3.57516 -3.673248,0.7006 -6.002762,-1.40692 -6.24894,-5.18884 -0.242279,-3.7218 2.570801,-5.63553 7.867463,-5.21759 z"
   id="path52"
   style="fill:#000000;fill-opacity:1" />
<path
   fill="#245C6B"
   opacity="1"
   stroke="none"
   d="m 341.83609,365.97483 c 0.45819,-2.80233 0.56299,-5.69214 1.99466,-7.57083 0.73462,-0.96393 4.46435,-0.89746 5.70874,0.10639 1.45035,1.16992 2.46127,3.95825 2.2547,5.89404 -0.4928,4.61822 -5.45053,5.46085 -9.9581,1.5704 z"
   id="path53"
   style="fill:#000000;fill-opacity:1" />
<path
   fill="#245C6B"
   opacity="1"
   stroke="none"
   d="m 173.83774,360.14601 c 2.53041,-0.95011 4.99676,-2.30069 7.14906,-1.91205 1.27791,0.23074 2.76286,3.16522 2.85611,4.95184 0.0824,1.57855 -1.27359,4.05493 -2.65071,4.67307 -1.62405,0.72909 -4.91596,0.63479 -5.75789,-0.44678 -1.34593,-1.72913 -1.26846,-4.56629 -1.59657,-7.26608 z"
   id="path54"
   style="fill:#000000;fill-opacity:1" />
<path
   fill="#1F5968"
   opacity="1"
   stroke="none"
   d="m 382.94904,379.14442 c -2.66938,-0.41812 -5.64982,-0.36997 -7.12348,-1.83618 -1.08941,-1.08393 -1.01636,-4.70676 0.0101,-6.15747 1.00574,-1.42151 3.98764,-2.32618 5.89893,-2.05017 4.60318,0.66479 5.24759,5.54007 1.21448,10.04382 z"
   id="path55"
   style="fill:#000000;fill-opacity:1" />
<path
   fill="#245C6B"
   opacity="1"
   stroke="none"
   d="m 317.62433,220.71836 c -2.89688,2.8899 -6.08335,3.42676 -8.42798,0.58701 -1.24872,-1.51245 -1.78528,-4.99564 -0.86868,-6.52753 0.93228,-1.55816 4.25271,-2.82345 6.16024,-2.43121 4.28647,0.88135 4.96567,4.22815 3.13642,8.37173 z"
   id="path56"
   style="fill:#000000;fill-opacity:1" />
<path
   fill="#245C6B"
   opacity="1"
   stroke="none"
   d="m 83.348282,217.1659 c 1.008324,-4.70361 3.949402,-6.06814 7.80732,-4.75436 3.33921,1.13718 4.534492,4.21442 2.865341,7.18884 -0.918549,1.63678 -3.998062,3.60593 -5.284424,3.14417 -2.150658,-0.77207 -3.64534,-3.37134 -5.388237,-5.57865 z"
   id="path57"
   style="fill:#000000;fill-opacity:1" />
<path
   fill="#245C6B"
   opacity="1"
   stroke="none"
   d="m 283.22491,190.94251 c 2.40354,3.02329 2.62775,6.1395 -0.15798,8.10456 -1.62375,1.14541 -5.07666,1.52701 -6.55878,0.53589 -1.51987,-1.01642 -2.45285,-4.22586 -2.19577,-6.29581 0.46039,-3.70679 4.01526,-4.5614 8.91253,-2.34464 z"
   id="path58"
   style="fill:#000000;fill-opacity:1" />
<path
   fill="#245C6B"
   opacity="1"
   stroke="none"
   d="m 111.84135,77.42004 c 1.95269,1.70085 4.92245,3.50033 4.77665,4.99612 -0.21214,2.17644 -2.25488,5.0674 -4.26813,5.96039 -2.83066,1.25559 -5.57101,-0.60388 -6.21996,-3.85377 -0.82187,-4.11576 0.98986,-6.67788 5.71144,-7.10274 z"
   id="path59"
   style="fill:#000000;fill-opacity:1" />
<path
   fill="#245C6B"
   opacity="1"
   stroke="none"
   d="m 308.29126,158.29902 c 4.61771,-3.30635 8.88339,-2.8083 9.80542,1.19034 0.42953,1.8627 -0.26181,5.03934 -1.59918,5.9805 -1.58585,1.11606 -5.43601,1.43442 -6.46439,0.3512 -1.51263,-1.59333 -1.396,-4.73343 -1.74185,-7.52204 z"
   id="path60"
   style="fill:#000000;fill-opacity:1" />
<path
   fill="#1F5968"
   opacity="1"
   stroke="none"
   d="m 214.94904,99.14442 c -2.66939,-0.41815 -5.64982,-0.36998 -7.12346,-1.8362 -1.08945,-1.08395 -1.01639,-4.70672 0.0101,-6.15748 1.00569,-1.4215 3.98763,-2.32621 5.89891,-2.05017 4.60321,0.66479 5.24762,5.54006 1.2145,10.04385 z"
   id="path61"
   style="fill:#000000;fill-opacity:1" />
<path
   fill="#245C6B"
   opacity="1"
   stroke="none"
   d="m 149.1188,109.28746 c -3.02352,2.40293 -6.139,2.62651 -8.10476,-0.15909 -1.14513,-1.6227 -1.52849,-5.07407 -0.53815,-6.55429 1.01747,-1.52079 4.22411,-2.45627 6.29416,-2.20084 3.70811,0.45755 4.56027,3.99837 2.34875,8.91422 z"
   id="path62"
   style="fill:#000000;fill-opacity:1" />
<path
   fill="#245C6B"
   opacity="1"
   stroke="none"
   d="m 366.75983,110.5901 c -1.26834,-2.3925 -2.93436,-4.64769 -2.84024,-6.82685 0.0565,-1.30992 2.71392,-3.2608 4.45392,-3.58854 3.66271,-0.68991 6.00515,1.39786 6.24316,5.19397 0.2344,3.73816 -2.54447,5.63667 -7.85684,5.22142 z"
   id="path63"
   style="fill:#000000;fill-opacity:1" />
<path
   fill="#225B6A"
   opacity="1"
   stroke="none"
   d="m 299.62952,100.32795 c 5.63711,-0.25793 7.93487,1.49127 7.63717,5.51555 -0.27261,3.68593 -2.60223,5.59572 -6.00244,4.99648 -1.77359,-0.31258 -4.49396,-2.30806 -4.56012,-3.65291 -0.10788,-2.1937 1.60675,-4.47699 2.92539,-6.85912 z"
   id="path64"
   style="fill:#000000;fill-opacity:1" />
<path
   fill="#225B6A"
   opacity="1"
   stroke="none"
   d="m 139.20178,50.62492 c -1.51768,4.27777 -4.58304,5.6879 -7.88356,3.55682 -1.66569,-1.07548 -2.90448,-4.44273 -2.61659,-6.53735 0.45041,-3.27693 3.82915,-4.64543 6.56872,-3.28206 1.8499,0.92059 2.69256,3.86522 3.93143,6.26259 z"
   id="path65"
   style="fill:#000000;fill-opacity:1" />
<path
   fill="#225B6A"
   opacity="1"
   stroke="none"
   d="m 240.12939,49.14105 c 0.83779,-3.84815 3.13547,-5.86151 6.50391,-4.92159 1.79747,0.50157 3.85709,2.58704 4.43004,4.39203 0.9837,3.09886 -0.78052,5.67029 -4.06169,6.25028 -3.97577,0.70274 -6.30469,-1.34166 -6.87226,-5.72072 z"
   id="path66"
   style="fill:#000000;fill-opacity:1" />
<path
   fill="#225B6A"
   opacity="1"
   stroke="none"
   d="m 127.27353,74.97129 c -2.62354,0.81806 -5.20839,2.05344 -7.37809,1.53876 -1.28684,-0.30525 -2.77509,-3.45544 -2.6049,-5.17087 0.17047,-1.71797 1.96459,-3.95865 3.62009,-4.71362 4.45257,-2.0305 7.65375,2.02339 6.3629,8.34573 z"
   id="path67"
   style="fill:#000000;fill-opacity:1" />
<path
   fill="#225B6A"
   opacity="1"
   stroke="none"
   d="m 380.05756,346.10908 c -4.39097,-0.495 -6.18451,-3.13153 -5.04975,-6.60745 0.5976,-1.83066 3.47058,-4.24753 5.08051,-4.08374 2.03293,0.20682 4.92755,2.45944 5.48175,4.39364 1.00934,3.52277 -1.23218,5.94626 -5.51251,6.29755 z"
   id="path68"
   style="fill:#000000;fill-opacity:1" />
<path
   fill="#225B6A"
   opacity="1"
   stroke="none"
   d="m 238.93741,236.33143 c 1.88338,4.03491 1.70793,7.55097 -2.70284,8.62247 -1.85425,0.45047 -5.23272,-0.8393 -6.16217,-2.39029 -0.93097,-1.55353 -0.41955,-4.98642 0.79251,-6.58496 2.1232,-2.8002 5.21337,-2.37848 8.0725,0.35278 z"
   id="path69"
   style="fill:#000000;fill-opacity:1" />
<path
   fill="#225B6A"
   opacity="1"
   stroke="none"
   d="m 22.709013,111.15101 c 3.584312,1.02361 5.302052,3.31923 4.362247,6.4456 -0.517206,1.72051 -2.354946,3.75087 -4.023302,4.26848 -3.271686,1.01502 -6.148567,-0.55624 -6.715976,-4.10393 -0.687,-4.29547 1.70154,-6.50294 6.377031,-6.61015 z"
   id="path70"
   style="fill:#000000;fill-opacity:1" />
<path
   fill="#225B6A"
   opacity="1"
   stroke="none"
   d="m 382.3714,121.79661 c -3.43247,0.66306 -6.54382,0.26099 -7.19122,-3.08873 -0.38999,-2.01772 0.50009,-5.05328 1.94894,-6.47913 2.29239,-2.25596 5.44171,-1.59169 7.42212,1.00036 2.51773,3.29537 1.55176,6.20806 -2.17984,8.5675 z"
   id="path71"
   style="fill:#000000;fill-opacity:1" />
<path
   fill="#225B6A"
   opacity="1"
   stroke="none"
   d="m 376.47739,157.24555 c 2.87127,0.0326 5.75677,-0.27972 7.89022,0.84034 1.02912,0.54031 1.39032,4.07101 0.7381,5.73047 -1.27804,3.2517 -4.3612,4.25274 -7.44418,2.53369 -3.87073,-2.15824 -3.88321,-5.41846 -1.18414,-9.1045 z"
   id="path72"
   style="fill:#000000;fill-opacity:1" />
<path
   fill="#225B6A"
   opacity="1"
   stroke="none"
   d="m 351.64755,203.83845 c 0.47281,6.22757 -2.85431,9.72552 -6.99377,7.54468 -1.61487,-0.8508 -3.30213,-3.15555 -3.38535,-4.87415 -0.083,-1.71414 1.68064,-4.90033 2.84842,-5.00265 2.38269,-0.20883 4.909,1.22037 7.5307,2.33212 z"
   id="path73"
   style="fill:#000000;fill-opacity:1" />
<path
   fill="#1F5968"
   opacity="1"
   stroke="none"
   d="m 217.8674,128.03666 c -0.90636,4.43154 -3.71527,6.35965 -7.31267,4.85527 -1.7825,-0.74544 -3.60817,-4.00593 -3.45184,-5.97256 0.13432,-1.68968 2.87041,-4.14125 4.7894,-4.50707 3.39067,-0.64636 5.44108,1.80033 5.97511,5.62436 z"
   id="path74"
   style="fill:#000000;fill-opacity:1" />
<path
   fill="#1F5968"
   opacity="1"
   stroke="none"
   d="m 246.74405,379.84327 c -5.26386,-0.9245 -7.88788,-3.78058 -6.19785,-7.03262 0.94127,-1.81122 3.56246,-3.64664 5.51987,-3.75293 1.60965,-0.0874 4.19836,2.03384 4.86107,3.75177 1.22999,3.18857 -0.37203,5.80926 -4.18309,7.03378 z"
   id="path75"
   style="fill:#000000;fill-opacity:1" />
<path
   fill="#1F5968"
   opacity="1"
   stroke="none"
   d="m 331.43982,101.49821 c 5.18365,-2.30208 8.87628,-1.27136 9.2251,2.67537 0.16971,1.92041 -0.94113,4.83273 -2.4328,5.77426 -1.49375,0.94283 -4.66883,0.73317 -6.24552,-0.29384 -2.92392,-1.90462 -2.67196,-5.00365 -0.54678,-8.15579 z"
   id="path76"
   style="fill:#000000;fill-opacity:1" />
<path
   fill="#1F5968"
   opacity="1"
   stroke="none"
   d="m 280.63599,55.21304 c 1.68542,2.13251 3.72491,4.09443 4.00695,6.2829 0.16935,1.31378 -2.14294,3.77177 -3.80111,4.31956 -3.14078,1.03758 -5.93695,-0.18079 -6.77887,-3.85493 -0.90189,-3.93572 1.16736,-6.15827 6.57303,-6.74753 z"
   id="path77"
   style="fill:#000000;fill-opacity:1" />
<path
   fill="#1F5968"
   opacity="1"
   stroke="none"
   d="m 115.92963,63.92221 c -4.69854,3.23777 -9.05169,2.50309 -9.64685,-1.59339 -0.28042,-1.93013 0.57946,-4.90713 1.99746,-5.95419 1.4095,-1.04079 4.54456,-0.98702 6.24903,-0.10739 2.8656,1.47883 3.11627,4.41888 1.40036,7.65497 z"
   id="path78"
   style="fill:#000000;fill-opacity:1" />
<path
   fill="#1F5968"
   opacity="1"
   stroke="none"
   d="m 287.90576,54.33988 c -3.32251,-2.54908 -4.07162,-5.70173 -1.46411,-8.29321 1.38055,-1.37207 5.06632,-2.20235 6.46997,-1.31451 1.68015,1.0627 3.09534,4.41127 2.73309,6.43037 -0.66458,3.70435 -3.85476,4.54845 -7.73895,3.17735 z"
   id="path79"
   style="fill:#000000;fill-opacity:1" />
<path
   fill="#1F5968"
   opacity="1"
   stroke="none"
   d="m 330.1831,215.55055 c 1.62598,-3.45023 4.37253,-4.39624 7.14545,-3.11621 1.59854,0.73794 3.42551,3.14694 3.36847,4.74008 -0.0666,1.86197 -1.65738,4.41702 -3.32138,5.32422 -3.90179,2.12722 -7.2207,-1.05408 -7.19254,-6.94809 z"
   id="path80"
   style="fill:#000000;fill-opacity:1" />
<path
   fill="#1F5968"
   opacity="1"
   stroke="none"
   d="m 297.12982,354.96739 c -1.78915,-3.34079 -1.14511,-6.15634 1.65698,-7.64798 1.58951,-0.8461 4.60791,-0.97144 5.85398,0.0107 1.4703,1.15887 2.51962,3.93918 2.33874,5.88519 -0.41,4.41037 -5.08148,5.28925 -9.8497,1.75205 z"
   id="path81"
   style="fill:#000000;fill-opacity:1" />
<path
   fill="#1F5968"
   opacity="1"
   stroke="none"
   d="m 363.24649,352.05317 c -0.52942,4.45487 -3.27173,6.09345 -6.68936,4.94385 -1.84436,-0.62039 -4.43646,-3.71338 -4.10443,-5.04663 0.54635,-2.19376 2.91763,-4.97525 5.01931,-5.49741 3.22724,-0.80182 5.5535,1.52295 5.77448,5.60019 z"
   id="path82"
   style="fill:#000000;fill-opacity:1" />
<path
   fill="#1F5968"
   opacity="1"
   stroke="none"
   d="m 16.914835,181.11781 c 4.447834,-3.96857 9.126739,-3.51187 9.957695,0.89239 0.363987,1.9292 -0.40724,5.00119 -1.801836,6.0745 -1.417109,1.09066 -5.124666,1.27282 -6.225498,0.20285 -1.500677,-1.45859 -1.481993,-4.48041 -1.930361,-7.16974 z"
   id="path83"
   style="fill:#000000;fill-opacity:1" />




<path
   fill="#1F5968"
   opacity="1"
   stroke="none"
   d="m 317.45496,310.47828 c -2.55018,2.5885 -5.3722,3.12482 -7.71198,0.95691 -1.32257,-1.22531 -2.4429,-3.95584 -1.97192,-5.49286 0.54538,-1.77988 2.73132,-3.83484 4.56964,-4.28653 4.48269,-1.10138 6.987,3.15256 5.11426,8.82248 z"
   id="path88"
   style="fill:#000000;fill-opacity:1" />
<path
   fill="#165262"
   opacity="1"
   stroke="none"
   d="m 47.130619,355.26765 c -7.161922,-4.58136 -9.658642,-10.94699 -7.949032,-18.66132 1.447827,-6.53302 5.851753,-10.82257 12.430176,-12.20858 6.882702,-1.4502 12.850487,0.49124 17.241013,6.24762 4.475265,5.86746 4.324928,14.64331 -0.2697,20.40817 -5.069992,6.3613 -12.696647,7.95349 -21.452457,4.21411 z"
   id="path89"
   style="fill:#000000;fill-opacity:1" />
<path
   fill="#165262"
   opacity="1"
   stroke="none"
   d="m 47.803532,34.45561 c 12.369953,-4.37023 23.45029,2.02162 24.206478,13.5664 0.545257,8.32457 -4.161309,15.29293 -11.810002,17.48543 -7.891533,2.26212 -16.141578,-1.26958 -19.849189,-8.49707 -3.613495,-7.04402 -1.50536,-15.82852 5.050109,-20.96901 0.650292,-0.50993 1.375969,-0.92372 2.402604,-1.58575 z"
   id="path90"
   style="fill:#000000;fill-opacity:1" />
<path
   fill="#165262"
   opacity="1"
   stroke="none"
   d="m 330.50384,54.11235 c -1.34558,-9.97797 1.72812,-16.51856 9.05405,-19.93458 6.28391,-2.93011 14.5156,-1.36637 19.24649,3.78014 4.87995,5.30872 5.72675,11.51447 3.21738,18.0622 -2.45975,6.41815 -8.65253,10.18243 -15.72922,10.08981 -7.3985,-0.0968 -12.63171,-3.97751 -15.7887,-11.99757 z"
   id="path91"
   style="fill:#000000;fill-opacity:1" />
</svg>
